GoogleSansCode-Light.ufo
<glyph name="percent" format="2">
  <advance width="1200"/>
  <unicode hex="0025"/>
  <outline>
    <contour>
      <point x="126" y="262" type="line"/>
      <point x="1166" y="1058" type="line"/>
      <point x="1076" y="1170" type="line"/>
      <point x="34" y="373" type="line"/>
    </contour>
    <contour>
      <point x="873" y="-31" type="curve" smooth="yes"/>
      <point x="1034" y="-31"/>
      <point x="1165" y="102"/>
      <point x="1165" y="274" type="curve" smooth="yes"/>
      <point x="1165" y="282" type="line" smooth="yes"/>
      <point x="1165" y="455"/>
      <point x="1034" y="589"/>
      <point x="873" y="589" type="curve" smooth="yes"/>
      <point x="713" y="589"/>
      <point x="582" y="455"/>
      <point x="582" y="282" type="curve" smooth="yes"/>
      <point x="582" y="274" type="line" smooth="yes"/>
      <point x="582" y="102"/>
      <point x="713" y="-31"/>
    </contour>
    <contour>
      <point x="873" y="104" type="curve" smooth="yes"/>
      <point x="784" y="104"/>
      <point x="721" y="175"/>
      <point x="721" y="276" type="curve" smooth="yes"/>
      <point x="721" y="280" type="line" smooth="yes"/>
      <point x="721" y="381"/>
      <point x="785" y="454"/>
      <point x="873" y="454" type="curve" smooth="yes"/>
      <point x="962" y="454"/>
      <point x="1026" y="381"/>
      <point x="1026" y="280" type="curve" smooth="yes"/>
      <point x="1026" y="276" type="line" smooth="yes"/>
      <point x="1026" y="175"/>
      <point x="963" y="104"/>
    </contour>
    <contour>
      <point x="326" y="843" type="curve" smooth="yes"/>
      <point x="487" y="843"/>
      <point x="618" y="976"/>
      <point x="618" y="1148" type="curve" smooth="yes"/>
      <point x="618" y="1156" type="line" smooth="yes"/>
      <point x="618" y="1329"/>
      <point x="487" y="1463"/>
      <point x="326" y="1463" type="curve" smooth="yes"/>
      <point x="166" y="1463"/>
      <point x="35" y="1329"/>
      <point x="35" y="1156" type="curve" smooth="yes"/>
      <point x="35" y="1148" type="line" smooth="yes"/>
      <point x="35" y="976"/>
      <point x="166" y="843"/>
    </contour>
    <contour>
      <point x="326" y="978" type="curve" smooth="yes"/>
      <point x="237" y="978"/>
      <point x="174" y="1049"/>
      <point x="174" y="1150" type="curve" smooth="yes"/>
      <point x="174" y="1154" type="line" smooth="yes"/>
      <point x="174" y="1255"/>
      <point x="237" y="1328"/>
      <point x="326" y="1328" type="curve" smooth="yes"/>
      <point x="416" y="1328"/>
      <point x="479" y="1255"/>
      <point x="479" y="1154" type="curve" smooth="yes"/>
      <point x="479" y="1150" type="line" smooth="yes"/>
      <point x="479" y="1049"/>
      <point x="416" y="978"/>
    </contour>
  </outline>
</glyph>
<glyph name="ampersand" format="2">
  <advance width="1200"/>
  <unicode hex="0026"/>
  <outline>
    <contour>
      <point x="1074" y="-48" type="line"/>
      <point x="1176" y="53" type="line"/>
      <point x="497" y="776" type="line" smooth="yes"/>
      <point x="348" y="934"/>
      <point x="302" y="1016"/>
      <point x="302" y="1108" type="curve" smooth="yes"/>
      <point x="302" y="1119" type="line" smooth="yes"/>
      <point x="302" y="1245"/>
      <point x="388" y="1322"/>
      <point x="518" y="1322" type="curve" smooth="yes"/>
      <point x="642" y="1322"/>
      <point x="723" y="1265"/>
      <point x="803" y="1120" type="curve"/>
      <point x="931" y="1208" type="line"/>
      <point x="822" y="1390"/>
      <point x="706" y="1462"/>
      <point x="527" y="1462" type="curve" smooth="yes"/>
      <point x="308" y="1462"/>
      <point x="152" y="1318"/>
      <point x="152" y="1112" type="curve" smooth="yes"/>
      <point x="152" y="1110" type="line" smooth="yes"/>
      <point x="152" y="975"/>
      <point x="220" y="860"/>
      <point x="400" y="669" type="curve" smooth="yes"/>
    </contour>
    <contour>
      <point x="473" y="-30" type="curve" smooth="yes"/>
      <point x="770" y="-30"/>
      <point x="972" y="246"/>
      <point x="1087" y="785" type="curve"/>
      <point x="939" y="815" type="line"/>
      <point x="830" y="309"/>
      <point x="705" y="110"/>
      <point x="475" y="110" type="curve" smooth="yes"/>
      <point x="304" y="110"/>
      <point x="206" y="210"/>
      <point x="206" y="378" type="curve" smooth="yes"/>
      <point x="206" y="409" type="line" smooth="yes"/>
      <point x="206" y="577"/>
      <point x="298" y="683"/>
      <point x="483" y="736" type="curve"/>
      <point x="372" y="841" type="line"/>
      <point x="170" y="757"/>
      <point x="58" y="616"/>
      <point x="58" y="402" type="curve" smooth="yes"/>
      <point x="58" y="384" type="line" smooth="yes"/>
      <point x="58" y="141"/>
      <point x="217" y="-30"/>
    </contour>
  </outline>
</glyph>
<glyph name="quotesingle" format="2">
  <advance width="1200"/>
  <unicode hex="0027"/>
  <outline>
    <contour>
      <point x="506" y="906" type="line"/>
      <point x="694" y="906" type="line"/>
      <point x="694" y="1460" type="line"/>
      <point x="506" y="1460" type="line"/>
    </contour>
  </outline>
</glyph>
<glyph name="parenright" format="2">
  <advance width="1200"/>
  <unicode hex="0029"/>
  <outline>
    <contour>
      <point x="289" y="-297" type="line"/>
      <point x="633" y="-45"/>
      <point x="823" y="261"/>
      <point x="823" y="665" type="curve" smooth="yes"/>
      <point x="823" y="1069"/>
      <point x="633" y="1375"/>
      <point x="289" y="1627" type="curve"/>
      <point x="199" y="1507" type="line"/>
      <point x="522" y="1274"/>
      <point x="674" y="1020"/>
      <point x="674" y="665" type="curve" smooth="yes"/>
      <point x="674" y="310"/>
      <point x="522" y="56"/>
      <point x="199" y="-177" type="curve"/>
    </contour>
  </outline>
</glyph>
<glyph name="plus" format="2">
  <advance width="1200"/>
  <unicode hex="002B"/>
  <outline>
    <contour>
      <point x="531" y="173" type="line"/>
      <point x="669" y="173" type="line"/>
      <point x="669" y="1077" type="line"/>
      <point x="531" y="1077" type="line"/>
    </contour>
    <contour>
      <point x="153" y="560" type="line"/>
      <point x="1047" y="560" type="line"/>
      <point x="1047" y="690" type="line"/>
      <point x="153" y="690" type="line"/>
    </contour>
  </outline>
</glyph>
<glyph name="comma" format="2">
  <advance width="1200"/>
  <unicode hex="002C"/>
  <outline>
    <contour>
      <point x="494" y="-340" type="line"/>
      <point x="695" y="-58" type="line" smooth="yes"/>
      <point x="736" y="0"/>
      <point x="764" y="60"/>
      <point x="764" y="117" type="curve" smooth="yes"/>
      <point x="764" y="223"/>
      <point x="696" y="275"/>
      <point x="612" y="275" type="curve" smooth="yes"/>
      <point x="528" y="275"/>
      <point x="466" y="211"/>
      <point x="466" y="133" type="curve" smooth="yes"/>
      <point x="466" y="48"/>
      <point x="530" y="-9"/>
      <point x="621" y="-11" type="curve"/>
      <point x="620" y="31" type="line"/>
      <point x="396" y="-276" type="line"/>
    </contour>
  </outline>
</glyph>
<glyph name="hyphen" format="2">
  <advance width="1200"/>
  <unicode hex="002D"/>
  <outline>
    <contour>
      <point x="164" y="553" type="line"/>
      <point x="1036" y="553" type="line"/>
      <point x="1036" y="699" type="line"/>
      <point x="164" y="699" type="line"/>
    </contour>
  </outline>
</glyph>
<glyph name="slash" format="2">
  <advance width="1200"/>
  <unicode hex="002F"/>
  <outline>
    <contour>
      <point x="112" y="-176" type="line"/>
      <point x="264" y="-176" type="line"/>
      <point x="1088" y="1460" type="line"/>
      <point x="936" y="1460" type="line"/>
    </contour>
  </outline>
</glyph>
<glyph name="zero" format="2">
  <advance width="1200"/>
  <unicode hex="0030"/>
  <outline>
    <contour>
      <point x="189" y="414" type="line"/>
      <point x="1052" y="884" type="line"/>
      <point x="1011" y="1018" type="line"/>
      <point x="148" y="548" type="line"/>
    </contour>
    <contour>
      <point x="600" y="-30" type="curve" smooth="yes"/>
      <point x="913" y="-30"/>
      <point x="1094" y="233"/>
      <point x="1094" y="675" type="curve" smooth="yes"/>
      <point x="1094" y="760" type="line" smooth="yes"/>
      <point x="1094" y="1199"/>
      <point x="913" y="1462"/>
      <point x="600" y="1462" type="curve" smooth="yes"/>
      <point x="287" y="1462"/>
      <point x="106" y="1199"/>
      <point x="106" y="760" type="curve" smooth="yes"/>
      <point x="106" y="675" type="line" smooth="yes"/>
      <point x="106" y="234"/>
      <point x="287" y="-30"/>
    </contour>
    <contour>
      <point x="603" y="108" type="curve" smooth="yes"/>
      <point x="375" y="108"/>
      <point x="252" y="284"/>
      <point x="252" y="678" type="curve" smooth="yes"/>
      <point x="252" y="756" type="line" smooth="yes"/>
      <point x="252" y="1127"/>
      <point x="374" y="1324"/>
      <point x="597" y="1324" type="curve" smooth="yes"/>
      <point x="825" y="1324"/>
      <point x="948" y="1149"/>
      <point x="948" y="756" type="curve" smooth="yes"/>
      <point x="948" y="678" type="line" smooth="yes"/>
      <point x="948" y="306"/>
      <point x="826" y="108"/>
    </contour>
  </outline>
</glyph>
<glyph name="one" format="2">
  <advance width="1200"/>
  <unicode hex="0031"/>
  <outline>
    <contour>
      <point x="598" y="70" type="line"/>
      <point x="750" y="70" type="line"/>
      <point x="750" y="1432" type="line"/>
      <point x="649" y="1432" type="line"/>
      <point x="165" y="1169" type="line"/>
      <point x="236" y="1043" type="line"/>
      <point x="598" y="1240" type="line"/>
    </contour>
    <contour>
      <point x="223" y="0" type="line"/>
      <point x="1089" y="0" type="line"/>
      <point x="1089" y="146" type="line"/>
      <point x="223" y="146" type="line"/>
    </contour>
  </outline>
</glyph>
<glyph name="two" format="2">
  <advance width="1200"/>
  <unicode hex="0032"/>
  <outline>
    <contour>
      <point x="162" y="0" type="line"/>
      <point x="1020" y="0" type="line"/>
      <point x="1020" y="140" type="line"/>
      <point x="342" y="140" type="line"/>
      <point x="342" y="146" type="line"/>
      <point x="769" y="625" type="line" smooth="yes"/>
      <point x="942" y="820"/>
      <point x="1001" y="934"/>
      <point x="1001" y="1073" type="curve" smooth="yes"/>
      <point x="1001" y="1086" type="line" smooth="yes"/>
      <point x="1001" y="1308"/>
      <point x="842" y="1462"/>
      <point x="612" y="1462" type="curve" smooth="yes"/>
      <point x="420" y="1462"/>
      <point x="269" y="1364"/>
      <point x="164" y="1170" type="curve"/>
      <point x="293" y="1097" type="line"/>
      <point x="371" y="1246"/>
      <point x="476" y="1318"/>
      <point x="614" y="1318" type="curve" smooth="yes"/>
      <point x="762" y="1318"/>
      <point x="849" y="1235"/>
      <point x="849" y="1094" type="curve" smooth="yes"/>
      <point x="849" y="1083" type="line" smooth="yes"/>
      <point x="849" y="967"/>
      <point x="803" y="876"/>
      <point x="663" y="718" type="curve" smooth="yes"/>
      <point x="162" y="149" type="line"/>
    </contour>
  </outline>
</glyph>
<glyph name="four" format="2">
  <advance width="1200"/>
  <unicode hex="0034"/>
  <outline>
    <contour>
      <point x="735" y="0" type="line"/>
      <point x="881" y="0" type="line"/>
      <point x="881" y="1432" type="line"/>
      <point x="723" y="1432" type="line"/>
      <point x="86" y="497" type="line"/>
      <point x="86" y="376" type="line"/>
      <point x="1104" y="376" type="line"/>
      <point x="1104" y="512" type="line"/>
      <point x="834" y="512" type="line"/>
      <point x="796" y="512" type="line"/>
      <point x="261" y="512" type="line"/>
      <point x="261" y="516" type="line"/>
      <point x="733" y="1208" type="line"/>
      <point x="827" y="1208" type="line"/>
      <point x="737" y="1310" type="line"/>
      <point x="737" y="459" type="line"/>
      <point x="735" y="422" type="line"/>
    </contour>
  </outline>
</glyph>
<glyph name="six" format="2">
  <advance width="1200"/>
  <unicode hex="0036"/>
  <outline>
    <contour>
      <point x="599" y="-30" type="curve" smooth="yes"/>
      <point x="869" y="-30"/>
      <point x="1064" y="165"/>
      <point x="1064" y="435" type="curve" smooth="yes"/>
      <point x="1064" y="458" type="line" smooth="yes"/>
      <point x="1064" y="719"/>
      <point x="883" y="916"/>
      <point x="643" y="916" type="curve" smooth="yes"/>
      <point x="548" y="916"/>
      <point x="461" y="886"/>
      <point x="389" y="829" type="curve"/>
      <point x="384" y="835" type="line"/>
      <point x="441" y="889"/>
      <point x="489" y="941"/>
      <point x="549" y="1017" type="curve" smooth="yes"/>
      <point x="841" y="1383" type="line"/>
      <point x="720" y="1471" type="line"/>
      <point x="344" y="969" type="line" smooth="yes"/>
      <point x="198" y="774"/>
      <point x="136" y="626"/>
      <point x="136" y="467" type="curve" smooth="yes"/>
      <point x="136" y="443" type="line" smooth="yes"/>
      <point x="136" y="166"/>
      <point x="328" y="-30"/>
    </contour>
    <contour>
      <point x="599" y="110" type="curve" smooth="yes"/>
      <point x="411" y="110"/>
      <point x="284" y="239"/>
      <point x="284" y="429" type="curve" smooth="yes"/>
      <point x="284" y="462" type="line" smooth="yes"/>
      <point x="284" y="652"/>
      <point x="413" y="782"/>
      <point x="601" y="782" type="curve" smooth="yes"/>
      <point x="789" y="782"/>
      <point x="916" y="653"/>
      <point x="916" y="462" type="curve" smooth="yes"/>
      <point x="916" y="429" type="line" smooth="yes"/>
      <point x="916" y="239"/>
      <point x="788" y="110"/>
    </contour>
  </outline>
</glyph>
<glyph name="eight" format="2">
  <advance width="1200"/>
  <unicode hex="0038"/>
  <outline>
    <contour>
      <point x="600" y="-30" type="curve" smooth="yes"/>
      <point x="857" y="-30"/>
      <point x="1052" y="144"/>
      <point x="1052" y="377" type="curve" smooth="yes"/>
      <point x="1052" y="394" type="line" smooth="yes"/>
      <point x="1052" y="556"/>
      <point x="955" y="697"/>
      <point x="804" y="761" type="curve"/>
      <point x="804" y="765" type="line"/>
      <point x="927" y="825"/>
      <point x="1001" y="942"/>
      <point x="1001" y="1078" type="curve" smooth="yes"/>
      <point x="1001" y="1090" type="line" smooth="yes"/>
      <point x="1001" y="1305"/>
      <point x="831" y="1462"/>
      <point x="600" y="1462" type="curve" smooth="yes"/>
      <point x="369" y="1462"/>
      <point x="199" y="1305"/>
      <point x="199" y="1090" type="curve" smooth="yes"/>
      <point x="199" y="1078" type="line" smooth="yes"/>
      <point x="199" y="943"/>
      <point x="272" y="826"/>
      <point x="396" y="765" type="curve"/>
      <point x="396" y="761" type="line"/>
      <point x="245" y="697"/>
      <point x="148" y="556"/>
      <point x="148" y="394" type="curve" smooth="yes"/>
      <point x="148" y="377" type="line" smooth="yes"/>
      <point x="148" y="144"/>
      <point x="343" y="-30"/>
    </contour>
    <contour>
      <point x="600" y="108" type="curve" smooth="yes"/>
      <point x="421" y="108"/>
      <point x="294" y="223"/>
      <point x="294" y="384" type="curve" smooth="yes"/>
      <point x="294" y="408" type="line" smooth="yes"/>
      <point x="294" y="569"/>
      <point x="421" y="684"/>
      <point x="600" y="684" type="curve" smooth="yes"/>
      <point x="779" y="684"/>
      <point x="906" y="569"/>
      <point x="906" y="408" type="curve" smooth="yes"/>
      <point x="906" y="384" type="line" smooth="yes"/>
      <point x="906" y="223"/>
      <point x="779" y="108"/>
    </contour>
    <contour>
      <point x="600" y="832" type="curve" smooth="yes"/>
      <point x="448" y="832"/>
      <point x="345" y="927"/>
      <point x="345" y="1067" type="curve" smooth="yes"/>
      <point x="345" y="1089" type="line" smooth="yes"/>
      <point x="345" y="1230"/>
      <point x="448" y="1324"/>
      <point x="600" y="1324" type="curve" smooth="yes"/>
      <point x="753" y="1324"/>
      <point x="855" y="1230"/>
      <point x="855" y="1089" type="curve" smooth="yes"/>
      <point x="855" y="1067" type="line" smooth="yes"/>
      <point x="855" y="927"/>
      <point x="752" y="832"/>
    </contour>
  </outline>
</glyph>
<glyph name="colon" format="2">
  <advance width="1200"/>
  <unicode hex="003A"/>
  <outline>
    <contour>
      <point x="599" y="777" type="curve" smooth="yes"/>
      <point x="685" y="777"/>
      <point x="750" y="842"/>
      <point x="750" y="927" type="curve" smooth="yes"/>
      <point x="750" y="1009"/>
      <point x="685" y="1075"/>
      <point x="599" y="1075" type="curve" smooth="yes"/>
      <point x="517" y="1075"/>
      <point x="450" y="1009"/>
      <point x="450" y="927" type="curve" smooth="yes"/>
      <point x="450" y="842"/>
      <point x="515" y="777"/>
    </contour>
    <contour>
      <point x="599" y="-30" type="curve" smooth="yes"/>
      <point x="685" y="-30"/>
      <point x="750" y="35"/>
      <point x="750" y="120" type="curve" smooth="yes"/>
      <point x="750" y="202"/>
      <point x="685" y="268"/>
      <point x="599" y="268" type="curve" smooth="yes"/>
      <point x="517" y="268"/>
      <point x="450" y="202"/>
      <point x="450" y="120" type="curve" smooth="yes"/>
      <point x="450" y="35"/>
      <point x="515" y="-30"/>
    </contour>
  </outline>
</glyph>
<glyph name="less" format="2">
  <advance width="1200"/>
  <unicode hex="003C"/>
  <outline>
    <contour>
      <point x="1030" y="80" type="line"/>
      <point x="1030" y="247" type="line"/>
      <point x="316" y="622" type="line"/>
      <point x="316" y="630" type="line"/>
      <point x="1030" y="1006" type="line"/>
      <point x="1030" y="1173" type="line"/>
      <point x="150" y="700" type="line"/>
      <point x="150" y="553" type="line"/>
    </contour>
  </outline>
</glyph>
<glyph name="equal" format="2">
  <advance width="1200"/>
  <unicode hex="003D"/>
  <outline>
    <contour>
      <point x="136" y="769" type="line"/>
      <point x="1064" y="769" type="line"/>
      <point x="1064" y="911" type="line"/>
      <point x="136" y="911" type="line"/>
    </contour>
    <contour>
      <point x="136" y="341" type="line"/>
      <point x="1064" y="341" type="line"/>
      <point x="1064" y="483" type="line"/>
      <point x="136" y="483" type="line"/>
    </contour>
  </outline>
</glyph>
<glyph name="at" format="2">
  <advance width="1200"/>
  <unicode hex="0040"/>
  <outline>
    <contour>
      <point x="704" y="-233" type="curve" smooth="yes"/>
      <point x="855" y="-233"/>
      <point x="986" y="-192"/>
      <point x="1090" y="-113" type="curve"/>
      <point x="1015" y="10" type="line"/>
      <point x="917" y="-63"/>
      <point x="823" y="-95"/>
      <point x="708" y="-95" type="curve" smooth="yes"/>
      <point x="379" y="-95"/>
      <point x="208" y="165"/>
      <point x="208" y="664" type="curve" smooth="yes"/>
      <point x="208" y="712" type="line" smooth="yes"/>
      <point x="208" y="1217"/>
      <point x="349" y="1464"/>
      <point x="637" y="1464" type="curve" smooth="yes"/>
      <point x="843" y="1464"/>
      <point x="956" y="1324"/>
      <point x="956" y="1067" type="curve" smooth="yes"/>
      <point x="956" y="957" type="line"/>
      <point x="952" y="957" type="line"/>
      <point x="902" y="1049"/>
      <point x="823" y="1095"/>
      <point x="714" y="1095" type="curve" smooth="yes"/>
      <point x="521" y="1095"/>
      <point x="385" y="921"/>
      <point x="385" y="674" type="curve" smooth="yes"/>
      <point x="385" y="648" type="line" smooth="yes"/>
      <point x="385" y="397"/>
      <point x="518" y="226"/>
      <point x="712" y="226" type="curve" smooth="yes"/>
      <point x="818" y="226"/>
      <point x="893" y="269"/>
      <point x="952" y="364" type="curve"/>
      <point x="956" y="364" type="line"/>
      <point x="956" y="237" type="line"/>
      <point x="1102" y="237" type="line"/>
      <point x="1102" y="1072" type="line" smooth="yes"/>
      <point x="1102" y="1399"/>
      <point x="924" y="1602"/>
      <point x="639" y="1602" type="curve" smooth="yes"/>
      <point x="262" y="1602"/>
      <point x="62" y="1292"/>
      <point x="62" y="707" type="curve" smooth="yes"/>
      <point x="62" y="669" type="line" smooth="yes"/>
      <point x="62" y="91"/>
      <point x="292" y="-233"/>
    </contour>
    <contour>
      <point x="741" y="360" type="curve" smooth="yes"/>
      <point x="610" y="360"/>
      <point x="531" y="466"/>
      <point x="531" y="643" type="curve" smooth="yes"/>
      <point x="531" y="679" type="line" smooth="yes"/>
      <point x="531" y="854"/>
      <point x="611" y="961"/>
      <point x="741" y="961" type="curve" smooth="yes"/>
      <point x="870" y="961"/>
      <point x="951" y="852"/>
      <point x="951" y="679" type="curve" smooth="yes"/>
      <point x="951" y="643" type="line" smooth="yes"/>
      <point x="951" y="470"/>
      <point x="869" y="360"/>
    </contour>
  </outline>
</glyph>
<glyph name="E" format="2">
  <advance width="1200"/>
  <unicode hex="0045"/>
  <anchor x="596" y="0" name="bottom"/>
  <anchor x="996" y="0" name="ogonek"/>
  <anchor x="588" y="1432" name="top"/>
  <outline>
    <contour>
      <point x="196" y="0" type="line"/>
      <point x="996" y="0" type="line"/>
      <point x="996" y="136" type="line"/>
      <point x="342" y="136" type="line"/>
      <point x="342" y="1296" type="line"/>
      <point x="980" y="1296" type="line"/>
      <point x="980" y="1432" type="line"/>
      <point x="196" y="1432" type="line"/>
    </contour>
    <contour>
      <point x="277" y="667" type="line"/>
      <point x="900" y="667" type="line"/>
      <point x="900" y="803" type="line"/>
      <point x="277" y="803" type="line"/>
    </contour>
  </outline>
</glyph>
<glyph name="F" format="2">
  <advance width="1200"/>
  <unicode hex="0046"/>
  <outline>
    <contour>
      <point x="196" y="0" type="line"/>
      <point x="342" y="0" type="line"/>
      <point x="342" y="1296" type="line"/>
      <point x="996" y="1296" type="line"/>
      <point x="996" y="1432" type="line"/>
      <point x="196" y="1432" type="line"/>
    </contour>
    <contour>
      <point x="277" y="654" type="line"/>
      <point x="936" y="654" type="line"/>
      <point x="936" y="790" type="line"/>
      <point x="277" y="790" type="line"/>
    </contour>
  </outline>
</glyph>
<glyph name="I" format="2">
  <advance width="1200"/>
  <unicode hex="0049"/>
  <anchor x="600" y="0" name="bottom"/>
  <anchor x="729" y="0" name="ogonek"/>
  <anchor x="600" y="1432" name="top"/>
  <outline>
    <contour>
      <point x="526" y="75" type="line"/>
      <point x="674" y="75" type="line"/>
      <point x="674" y="1357" type="line"/>
      <point x="526" y="1357" type="line"/>
    </contour>
    <contour>
      <point x="190" y="0" type="line"/>
      <point x="1010" y="0" type="line"/>
      <point x="1010" y="138" type="line"/>
      <point x="190" y="138" type="line"/>
    </contour>
    <contour>
      <point x="190" y="1294" type="line"/>
      <point x="1010" y="1294" type="line"/>
      <point x="1010" y="1432" type="line"/>
      <point x="190" y="1432" type="line"/>
    </contour>
  </outline>
</glyph>
<glyph name="K" format="2">
  <advance width="1200"/>
  <unicode hex="004B"/>
  <anchor x="644" y="0" name="bottom"/>
  <outline>
    <contour>
      <point x="958" y="0" type="line"/>
      <point x="1144" y="0" type="line"/>
      <point x="477" y="758" type="line"/>
      <point x="477" y="696" type="line"/>
      <point x="1120" y="1432" type="line"/>
      <point x="937" y="1432" type="line"/>
      <point x="326" y="724" type="line"/>
      <point x="326" y="719" type="line"/>
    </contour>
    <contour>
      <point x="184" y="0" type="line"/>
      <point x="330" y="0" type="line"/>
      <point x="330" y="1432" type="line"/>
      <point x="184" y="1432" type="line"/>
    </contour>
  </outline>
</glyph>
<glyph name="L" format="2">
  <advance width="1200"/>
  <unicode hex="004C"/>
  <anchor x="632" y="0" name="bottom"/>
  <anchor x="285" y="1432" name="top"/>
  <outline>
    <contour>
      <point x="212" y="0" type="line"/>
      <point x="1052" y="0" type="line"/>
      <point x="1052" y="138" type="line"/>
      <point x="358" y="138" type="line"/>
      <point x="358" y="1432" type="line"/>
      <point x="212" y="1432" type="line"/>
    </contour>
  </outline>
</glyph>
<glyph name="Q" format="2">
  <advance width="1200"/>
  <unicode hex="0051"/>
  <outline>
    <contour>
      <point x="600" y="-16" type="curve" smooth="yes"/>
      <point x="919" y="-16"/>
      <point x="1117" y="261"/>
      <point x="1117" y="698" type="curve" smooth="yes"/>
      <point x="1117" y="734" type="line" smooth="yes"/>
      <point x="1117" y="1183"/>
      <point x="919" y="1462"/>
      <point x="600" y="1462" type="curve" smooth="yes"/>
      <point x="281" y="1462"/>
      <point x="83" y="1183"/>
      <point x="83" y="734" type="curve" smooth="yes"/>
      <point x="83" y="698" type="line" smooth="yes"/>
      <point x="83" y="261"/>
      <point x="298" y="-16"/>
    </contour>
    <contour>
      <point x="1041" y="-364" type="curve" smooth="yes"/>
      <point x="1090" y="-364"/>
      <point x="1133" y="-356"/>
      <point x="1174" y="-339" type="curve"/>
      <point x="1141" y="-204" type="line"/>
      <point x="1111" y="-217"/>
      <point x="1080" y="-224"/>
      <point x="1045" y="-224" type="curve" smooth="yes"/>
      <point x="958" y="-224"/>
      <point x="908" y="-190"/>
      <point x="814" y="-68" type="curve" smooth="yes"/>
      <point x="734" y="36"/>
      <point x="636" y="90"/>
      <point x="515" y="90" type="curve" smooth="yes"/>
      <point x="336" y="90"/>
      <point x="213" y="-27"/>
      <point x="181" y="-236" type="curve"/>
      <point x="333" y="-260" type="line"/>
      <point x="356" y="-101"/>
      <point x="412" y="-28"/>
      <point x="511" y="-28" type="curve" smooth="yes"/>
      <point x="590" y="-28"/>
      <point x="635" y="-63"/>
      <point x="726" y="-182" type="curve" smooth="yes"/>
      <point x="825" y="-311"/>
      <point x="914" y="-364"/>
    </contour>
    <contour>
      <point x="600" y="104" type="curve" smooth="yes"/>
      <point x="367" y="104"/>
      <point x="231" y="317"/>
      <point x="231" y="693" type="curve" smooth="yes"/>
      <point x="231" y="739" type="line" smooth="yes"/>
      <point x="231" y="1108"/>
      <point x="367" y="1322"/>
      <point x="600" y="1322" type="curve" smooth="yes"/>
      <point x="833" y="1322"/>
      <point x="969" y="1108"/>
      <point x="969" y="739" type="curve" smooth="yes"/>
      <point x="969" y="693" type="line" smooth="yes"/>
      <point x="969" y="298"/>
      <point x="830" y="104"/>
    </contour>
  </outline>
</glyph>
<glyph name="R" format="2">
  <advance width="1200"/>
  <unicode hex="0052"/>
  <anchor x="537" y="1432" name="top"/>
  <outline>
    <contour>
      <point x="174" y="0" type="line"/>
      <point x="318" y="0" type="line"/>
      <point x="318" y="1296" type="line"/>
      <point x="604" y="1296" type="line" smooth="yes"/>
      <point x="790" y="1296"/>
      <point x="900" y="1195"/>
      <point x="900" y="1025" type="curve" smooth="yes"/>
      <point x="900" y="993" type="line" smooth="yes"/>
      <point x="900" y="823"/>
      <point x="790" y="722"/>
      <point x="604" y="722" type="curve" smooth="yes"/>
      <point x="254" y="722" type="line"/>
      <point x="254" y="586" type="line"/>
      <point x="609" y="586" type="line" smooth="yes"/>
      <point x="873" y="586"/>
      <point x="1048" y="751"/>
      <point x="1048" y="998" type="curve" smooth="yes"/>
      <point x="1048" y="1020" type="line" smooth="yes"/>
      <point x="1048" y="1267"/>
      <point x="873" y="1432"/>
      <point x="609" y="1432" type="curve" smooth="yes"/>
      <point x="174" y="1432" type="line"/>
    </contour>
    <contour>
      <point x="972" y="0" type="line"/>
      <point x="1138" y="0" type="line"/>
      <point x="722" y="649" type="line"/>
      <point x="562" y="649" type="line"/>
    </contour>
  </outline>
</glyph>
<glyph name="X" format="2">
  <advance width="1200"/>
  <unicode hex="0058"/>
  <outline>
    <contour>
      <point x="971" y="0" type="line"/>
      <point x="1142" y="0" type="line"/>
      <point x="679" y="759" type="line"/>
      <point x="655" y="767" type="line"/>
      <point x="250" y="1432" type="line"/>
      <point x="79" y="1432" type="line"/>
      <point x="530" y="695" type="line"/>
      <point x="554" y="687" type="line"/>
    </contour>
    <contour>
      <point x="58" y="0" type="line"/>
      <point x="223" y="0" type="line"/>
      <point x="651" y="690" type="line"/>
      <point x="670" y="709" type="line"/>
      <point x="1121" y="1432" type="line"/>
      <point x="956" y="1432" type="line"/>
      <point x="556" y="785" type="line"/>
      <point x="537" y="766" type="line"/>
    </contour>
  </outline>
</glyph>
<glyph name="Y" format="2">
  <advance width="1200"/>
  <unicode hex="0059"/>
  <anchor x="600" y="0" name="bottom"/>
  <anchor x="603" y="1432" name="top"/>
  <outline>
    <contour>
      <point x="531" y="552" type="line"/>
      <point x="669" y="552" type="line"/>
      <point x="1122" y="1432" type="line"/>
      <point x="961" y="1432" type="line"/>
      <point x="705" y="926" type="line"/>
      <point x="606" y="712" type="line"/>
      <point x="600" y="712" type="line"/>
      <point x="498" y="926" type="line"/>
      <point x="245" y="1432" type="line"/>
      <point x="78" y="1432" type="line"/>
    </contour>
    <contour>
      <point x="527" y="0" type="line"/>
      <point x="673" y="0" type="line"/>
      <point x="673" y="611" type="line"/>
      <point x="527" y="611" type="line"/>
    </contour>
  </outline>
</glyph>
<glyph name="Z" format="2">
  <advance width="1200"/>
  <unicode hex="005A"/>
  <anchor x="605" y="1432" name="top"/>
  <outline>
    <contour>
      <point x="158" y="0" type="line"/>
      <point x="1042" y="0" type="line"/>
      <point x="1042" y="138" type="line"/>
      <point x="324" y="138" type="line"/>
      <point x="1025" y="1305" type="line"/>
      <point x="1025" y="1432" type="line"/>
      <point x="185" y="1432" type="line"/>
      <point x="185" y="1294" type="line"/>
      <point x="859" y="1294" type="line"/>
      <point x="158" y="127" type="line"/>
    </contour>
  </outline>
</glyph>
<glyph name="bracketright" format="2">
  <advance width="1200"/>
  <unicode hex="005D"/>
  <outline>
    <contour>
      <point x="190" y="-252" type="line"/>
      <point x="834" y="-252" type="line"/>
      <point x="834" y="1585" type="line"/>
      <point x="190" y="1585" type="line"/>
      <point x="190" y="1463" type="line"/>
      <point x="691" y="1463" type="line"/>
      <point x="691" y="-130" type="line"/>
      <point x="190" y="-130" type="line"/>
    </contour>
  </outline>
</glyph>
<glyph name="asciicircum" format="2">
  <advance width="1200"/>
  <unicode hex="005E"/>
  <outline>
    <contour>
      <point x="112" y="687" type="line"/>
      <point x="270" y="687" type="line"/>
      <point x="595" y="1256" type="line"/>
      <point x="601" y="1256" type="line"/>
      <point x="930" y="687" type="line"/>
      <point x="1088" y="687" type="line"/>
      <point x="653" y="1432" type="line"/>
      <point x="547" y="1432" type="line"/>
    </contour>
  </outline>
</glyph>
<glyph name="grave" format="2">
  <advance width="1200"/>
  <unicode hex="0060"/>
  <outline>
    <contour>
      <point x="632" y="882" type="line"/>
      <point x="802" y="882" type="line"/>
      <point x="546" y="1460" type="line"/>
      <point x="324" y="1460" type="line"/>
    </contour>
  </outline>
</glyph>
<glyph name="a" format="2">
  <advance width="1200"/>
  <unicode hex="0061"/>
  <anchor x="614" y="-30" name="bottom"/>
  <anchor x="989" y="0" name="ogonek"/>
  <anchor x="608" y="1045" name="top"/>
  <outline>
    <contour>
      <point x="540" y="-30" type="curve" smooth="yes"/>
      <point x="677" y="-30"/>
      <point x="778" y="34"/>
      <point x="853" y="158" type="curve"/>
      <point x="859" y="158" type="line"/>
      <point x="859" y="0" type="line"/>
      <point x="989" y="0" type="line"/>
      <point x="989" y="693" type="line" smooth="yes"/>
      <point x="989" y="927"/>
      <point x="837" y="1075"/>
      <point x="597" y="1075" type="curve" smooth="yes"/>
      <point x="448" y="1075"/>
      <point x="324" y="1023"/>
      <point x="231" y="921" type="curve"/>
      <point x="330" y="816" type="line"/>
      <point x="408" y="897"/>
      <point x="501" y="938"/>
      <point x="608" y="938" type="curve" smooth="yes"/>
      <point x="764" y="938"/>
      <point x="851" y="849"/>
      <point x="851" y="691" type="curve" smooth="yes"/>
      <point x="851" y="438" type="line" smooth="yes"/>
      <point x="851" y="247"/>
      <point x="727" y="110"/>
      <point x="554" y="110" type="curve" smooth="yes"/>
      <point x="412" y="110"/>
      <point x="322" y="185"/>
      <point x="322" y="304" type="curve" smooth="yes"/>
      <point x="322" y="321" type="line" smooth="yes"/>
      <point x="322" y="455"/>
      <point x="426" y="538"/>
      <point x="590" y="538" type="curve" smooth="yes"/>
      <point x="695" y="538"/>
      <point x="787" y="513"/>
      <point x="864" y="464" type="curve"/>
      <point x="864" y="592" type="line"/>
      <point x="787" y="642"/>
      <point x="683" y="670"/>
      <point x="572" y="670" type="curve" smooth="yes"/>
      <point x="335" y="670"/>
      <point x="178" y="531"/>
      <point x="178" y="321" type="curve" smooth="yes"/>
      <point x="178" y="313" type="line" smooth="yes"/>
      <point x="178" y="114"/>
      <point x="330" y="-30"/>
    </contour>
  </outline>
</glyph>
<glyph name="b" format="2">
  <advance width="1200"/>
  <unicode hex="0062"/>
  <outline>
    <contour>
      <point x="630" y="-30" type="curve" smooth="yes"/>
      <point x="890" y="-30"/>
      <point x="1064" y="184"/>
      <point x="1064" y="502" type="curve" smooth="yes"/>
      <point x="1064" y="543" type="line" smooth="yes"/>
      <point x="1064" y="862"/>
      <point x="898" y="1075"/>
      <point x="645" y="1075" type="curve" smooth="yes"/>
      <point x="494" y="1075"/>
      <point x="383" y="1002"/>
      <point x="310" y="887" type="curve"/>
      <point x="305" y="887" type="line"/>
      <point x="305" y="1460" type="line"/>
      <point x="164" y="1460" type="line"/>
      <point x="164" y="0" type="line"/>
      <point x="290" y="0" type="line"/>
      <point x="290" y="177" type="line"/>
      <point x="296" y="177" type="line"/>
      <point x="361" y="48"/>
      <point x="480" y="-30"/>
    </contour>
    <contour>
      <point x="613" y="104" type="curve" smooth="yes"/>
      <point x="422" y="104"/>
      <point x="299" y="263"/>
      <point x="299" y="510" type="curve" smooth="yes"/>
      <point x="299" y="537" type="line" smooth="yes"/>
      <point x="299" y="784"/>
      <point x="422" y="941"/>
      <point x="613" y="941" type="curve" smooth="yes"/>
      <point x="803" y="941"/>
      <point x="918" y="788"/>
      <point x="918" y="536" type="curve" smooth="yes"/>
      <point x="918" y="509" type="line" smooth="yes"/>
      <point x="918" y="259"/>
      <point x="801" y="104"/>
    </contour>
  </outline>
</glyph>
<glyph name="e" format="2">
  <advance width="1200"/>
  <unicode hex="0065"/>
  <anchor x="633" y="-30" name="bottom"/>
  <anchor x="901" y="0" name="ogonek"/>
  <anchor x="621" y="1045" name="top"/>
  <outline>
    <contour>
      <point x="630" y="-30" type="curve" smooth="yes"/>
      <point x="816" y="-30"/>
      <point x="948" y="40"/>
      <point x="1042" y="188" type="curve"/>
      <point x="933" y="276" type="line"/>
      <point x="863" y="162"/>
      <point x="767" y="107"/>
      <point x="636" y="107" type="curve" smooth="yes"/>
      <point x="422" y="107"/>
      <point x="288" y="264"/>
      <point x="288" y="512" type="curve" smooth="yes"/>
      <point x="288" y="545" type="line" smooth="yes"/>
      <point x="288" y="791"/>
      <point x="417" y="941"/>
      <point x="619" y="941" type="curve" smooth="yes"/>
      <point x="791" y="941"/>
      <point x="901" y="815"/>
      <point x="901" y="620" type="curve"/>
      <point x="901" y="612" type="line"/>
      <point x="242" y="612" type="line"/>
      <point x="242" y="478" type="line"/>
      <point x="1040" y="478" type="line"/>
      <point x="1046" y="525"/>
      <point x="1049" y="571"/>
      <point x="1049" y="620" type="curve" smooth="yes"/>
      <point x="1049" y="894"/>
      <point x="880" y="1075"/>
      <point x="622" y="1075" type="curve" smooth="yes"/>
      <point x="335" y="1075"/>
      <point x="144" y="865"/>
      <point x="144" y="550" type="curve" smooth="yes"/>
      <point x="144" y="507" type="line" smooth="yes"/>
      <point x="144" y="184"/>
      <point x="337" y="-30"/>
    </contour>
  </outline>
</glyph>
<glyph name="h" format="2">
  <advance width="1200"/>
  <unicode hex="0068"/>
  <outline>
    <contour>
      <point x="201" y="0" type="line"/>
      <point x="341" y="0" type="line"/>
      <point x="341" y="603" type="line" smooth="yes"/>
      <point x="341" y="810"/>
      <point x="462" y="946"/>
      <point x="647" y="946" type="curve" smooth="yes"/>
      <point x="807" y="946"/>
      <point x="891" y="848"/>
      <point x="891" y="662" type="curve" smooth="yes"/>
      <point x="891" y="0" type="line"/>
      <point x="1031" y="0" type="line"/>
      <point x="1031" y="677" type="line" smooth="yes"/>
      <point x="1031" y="927"/>
      <point x="902" y="1077"/>
      <point x="685" y="1077" type="curve" smooth="yes"/>
      <point x="545" y="1077"/>
      <point x="429" y="1017"/>
      <point x="348" y="902" type="curve"/>
      <point x="341" y="902" type="line"/>
      <point x="341" y="1460" type="line"/>
      <point x="201" y="1460" type="line"/>
    </contour>
  </outline>
</glyph>
<glyph name="i" format="2">
  <advance width="1200"/>
  <unicode hex="0069"/>
  <anchor x="645" y="0" name="bottom"/>
  <anchor x="779" y="0" name="ogonek"/>
  <outline>
    <contour>
      <point x="576" y="67" type="line"/>
      <point x="714" y="67" type="line"/>
      <point x="714" y="1045" type="line"/>
      <point x="576" y="1045" type="line"/>
    </contour>
    <contour>
      <point x="215" y="0" type="line"/>
      <point x="1065" y="0" type="line"/>
      <point x="1065" y="122" type="line"/>
      <point x="215" y="122" type="line"/>
    </contour>
    <contour>
      <point x="235" y="923" type="line"/>
      <point x="656" y="923" type="line"/>
      <point x="656" y="1045" type="line"/>
      <point x="235" y="1045" type="line"/>
    </contour>
    <contour>
      <point x="621" y="1289" type="curve" smooth="yes"/>
      <point x="699" y="1289"/>
      <point x="757" y="1352"/>
      <point x="757" y="1427" type="curve" smooth="yes"/>
      <point x="757" y="1505"/>
      <point x="699" y="1564"/>
      <point x="621" y="1564" type="curve" smooth="yes"/>
      <point x="545" y="1564"/>
      <point x="483" y="1505"/>
      <point x="483" y="1428" type="curve" smooth="yes"/>
      <point x="483" y="1352"/>
      <point x="545" y="1289"/>
    </contour>
  </outline>
</glyph>
<glyph name="j" format="2">
  <advance width="1200"/>
  <unicode hex="006A"/>
  <outline>
    <contour>
      <point x="446" y="-440" type="curve" smooth="yes"/>
      <point x="662" y="-440"/>
      <point x="803" y="-289"/>
      <point x="803" y="-45" type="curve" smooth="yes"/>
      <point x="803" y="1045" type="line"/>
      <point x="663" y="1045" type="line"/>
      <point x="663" y="-47" type="line" smooth="yes"/>
      <point x="663" y="-216"/>
      <point x="587" y="-304"/>
      <point x="444" y="-304" type="curve" smooth="yes"/>
      <point x="360" y="-304"/>
      <point x="280" y="-274"/>
      <point x="198" y="-215" type="curve"/>
      <point x="124" y="-331" type="line"/>
      <point x="227" y="-405"/>
      <point x="332" y="-440"/>
    </contour>
    <contour>
      <point x="251" y="923" type="line"/>
      <point x="770" y="923" type="line"/>
      <point x="770" y="1045" type="line"/>
      <point x="251" y="1045" type="line"/>
    </contour>
    <contour>
      <point x="708" y="1289" type="curve" smooth="yes"/>
      <point x="784" y="1289"/>
      <point x="844" y="1350"/>
      <point x="844" y="1427" type="curve" smooth="yes"/>
      <point x="844" y="1505"/>
      <point x="786" y="1564"/>
      <point x="708" y="1564" type="curve" smooth="yes"/>
      <point x="631" y="1564"/>
      <point x="570" y="1503"/>
      <point x="570" y="1428" type="curve" smooth="yes"/>
      <point x="570" y="1352"/>
      <point x="633" y="1289"/>
    </contour>
  </outline>
</glyph>
<glyph name="k" format="2">
  <advance width="1200"/>
  <unicode hex="006B"/>
  <anchor x="612" y="10" name="bottom"/>
  <outline>
    <contour>
      <point x="864" y="0" type="line"/>
      <point x="1056" y="0" type="line"/>
      <point x="460" y="623" type="line"/>
      <point x="460" y="511" type="line"/>
      <point x="1026" y="1045" type="line"/>
      <point x="837" y="1045" type="line"/>
      <point x="332" y="566" type="line"/>
      <point x="332" y="560" type="line"/>
    </contour>
    <contour>
      <point x="196" y="0" type="line"/>
      <point x="337" y="0" type="line"/>
      <point x="337" y="1460" type="line"/>
      <point x="196" y="1460" type="line"/>
    </contour>
  </outline>
</glyph>
<glyph name="m" format="2">
  <advance width="1200"/>
  <unicode hex="006D"/>
  <outline>
    <contour>
      <point x="119" y="0" type="line"/>
      <point x="268" y="0" type="line"/>
      <point x="268" y="719" type="line" smooth="yes"/>
      <point x="268" y="864"/>
      <point x="332" y="944"/>
      <point x="418" y="944" type="curve" smooth="yes"/>
      <point x="490" y="944"/>
      <point x="528" y="897"/>
      <point x="528" y="772" type="curve" smooth="yes"/>
      <point x="528" y="0" type="line"/>
      <point x="677" y="0" type="line"/>
      <point x="677" y="719" type="line" smooth="yes"/>
      <point x="677" y="864"/>
      <point x="741" y="944"/>
      <point x="827" y="944" type="curve" smooth="yes"/>
      <point x="900" y="944"/>
      <point x="939" y="898"/>
      <point x="939" y="772" type="curve" smooth="yes"/>
      <point x="939" y="0" type="line"/>
      <point x="1088" y="0" type="line"/>
      <point x="1088" y="761" type="line" smooth="yes"/>
      <point x="1088" y="967"/>
      <point x="1013" y="1075"/>
      <point x="874" y="1075" type="curve" smooth="yes"/>
      <point x="764" y="1075"/>
      <point x="674" y="998"/>
      <point x="641" y="862" type="curve"/>
      <point x="654" y="849" type="line"/>
      <point x="644" y="992"/>
      <point x="574" y="1075"/>
      <point x="464" y="1075" type="curve" smooth="yes"/>
      <point x="369" y="1075"/>
      <point x="295" y="1014"/>
      <point x="262" y="911" type="curve"/>
      <point x="256" y="911" type="line"/>
      <point x="256" y="1045" type="line"/>
      <point x="119" y="1045" type="line"/>
    </contour>
  </outline>
</glyph>
<glyph name="n" format="2">
  <advance width="1200"/>
  <unicode hex="006E"/>
  <anchor x="636" y="10" name="bottom"/>
  <anchor x="617" y="1045" name="top"/>
  <outline>
    <contour>
      <point x="201" y="0" type="line"/>
      <point x="341" y="0" type="line"/>
      <point x="341" y="601" type="line" smooth="yes"/>
      <point x="341" y="813"/>
      <point x="468" y="944"/>
      <point x="647" y="944" type="curve" smooth="yes"/>
      <point x="806" y="944"/>
      <point x="891" y="847"/>
      <point x="891" y="660" type="curve" smooth="yes"/>
      <point x="891" y="0" type="line"/>
      <point x="1031" y="0" type="line"/>
      <point x="1031" y="675" type="line" smooth="yes"/>
      <point x="1031" y="919"/>
      <point x="908" y="1075"/>
      <point x="685" y="1075" type="curve" smooth="yes"/>
      <point x="538" y="1075"/>
      <point x="417" y="1007"/>
      <point x="337" y="883" type="curve"/>
      <point x="330" y="883" type="line"/>
      <point x="330" y="1045" type="line"/>
      <point x="201" y="1045" type="line"/>
    </contour>
  </outline>
</glyph>
<glyph name="u" format="2">
  <advance width="1200"/>
  <unicode hex="0075"/>
  <anchor x="611" y="-30" name="bottom"/>
  <anchor x="998" y="0" name="ogonek"/>
  <anchor x="591" y="1045" name="top"/>
  <outline>
    <contour>
      <point x="536" y="-30" type="curve" smooth="yes"/>
      <point x="684" y="-30"/>
      <point x="793" y="44"/>
      <point x="863" y="162" type="curve"/>
      <point x="869" y="162" type="line"/>
      <point x="869" y="0" type="line"/>
      <point x="998" y="0" type="line"/>
      <point x="998" y="1045" type="line"/>
      <point x="858" y="1045" type="line"/>
      <point x="858" y="440" type="line" smooth="yes"/>
      <point x="858" y="237"/>
      <point x="734" y="101"/>
      <point x="565" y="101" type="curve" smooth="yes"/>
      <point x="407" y="101"/>
      <point x="324" y="196"/>
      <point x="324" y="374" type="curve" smooth="yes"/>
      <point x="324" y="1045" type="line"/>
      <point x="183" y="1045" type="line"/>
      <point x="183" y="354" type="line" smooth="yes"/>
      <point x="183" y="113"/>
      <point x="321" y="-30"/>
    </contour>
  </outline>
</glyph>
<glyph name="w" format="2">
  <advance width="1200"/>
  <unicode hex="0077"/>
  <anchor x="600" y="1045" name="top"/>
  <outline>
    <contour>
      <point x="268" y="0" type="line"/>
      <point x="424" y="0" type="line"/>
      <point x="575" y="649" type="line"/>
      <point x="597" y="781" type="line"/>
      <point x="603" y="781" type="line"/>
      <point x="626" y="649" type="line"/>
      <point x="777" y="0" type="line"/>
      <point x="931" y="0" type="line"/>
      <point x="1158" y="1045" type="line"/>
      <point x="1018" y="1045" type="line"/>
      <point x="878" y="277" type="line"/>
      <point x="861" y="156" type="line"/>
      <point x="855" y="156" type="line"/>
      <point x="836" y="277" type="line"/>
      <point x="678" y="927" type="line"/>
      <point x="521" y="927" type="line"/>
      <point x="366" y="274" type="line"/>
      <point x="346" y="156" type="line"/>
      <point x="341" y="156" type="line"/>
      <point x="322" y="274" type="line"/>
      <point x="181" y="1045" type="line"/>
      <point x="42" y="1045" type="line"/>
    </contour>
  </outline>
</glyph>
<glyph name="x" format="2">
  <advance width="1200"/>
  <unicode hex="0078"/>
  <outline>
    <contour>
      <point x="882" y="0" type="line"/>
      <point x="1046" y="0" type="line"/>
      <point x="658" y="569" type="line"/>
      <point x="649" y="576" type="line"/>
      <point x="334" y="1045" type="line"/>
      <point x="170" y="1045" type="line"/>
      <point x="538" y="505" type="line"/>
      <point x="547" y="498" type="line"/>
    </contour>
    <contour>
      <point x="154" y="0" type="line"/>
      <point x="312" y="0" type="line"/>
      <point x="647" y="491" type="line"/>
      <point x="659" y="510" type="line"/>
      <point x="1030" y="1045" type="line"/>
      <point x="872" y="1045" type="line"/>
      <point x="553" y="579" type="line"/>
      <point x="546" y="566" type="line"/>
    </contour>
  </outline>
</glyph>
<glyph name="braceright" format="2">
  <advance width="1200"/>
  <unicode hex="007D"/>
  <outline>
    <contour>
      <point x="354" y="-259" type="curve" smooth="yes"/>
      <point x="624" y="-259"/>
      <point x="746" y="-187"/>
      <point x="746" y="-25" type="curve" smooth="yes"/>
      <point x="746" y="36"/>
      <point x="726" y="92"/>
      <point x="680" y="154" type="curve" smooth="yes"/>
      <point x="620" y="234" type="line" smooth="yes"/>
      <point x="576" y="292"/>
      <point x="559" y="330"/>
      <point x="559" y="367" type="curve" smooth="yes"/>
      <point x="559" y="420"/>
      <point x="585" y="449"/>
      <point x="648" y="461" type="curve" smooth="yes"/>
      <point x="1048" y="535" type="line"/>
      <point x="1048" y="793" type="line"/>
      <point x="648" y="867" type="line" smooth="yes"/>
      <point x="585" y="879"/>
      <point x="559" y="908"/>
      <point x="559" y="960" type="curve" smooth="yes"/>
      <point x="559" y="998"/>
      <point x="576" y="1036"/>
      <point x="620" y="1094" type="curve" smooth="yes"/>
      <point x="680" y="1174" type="line" smooth="yes"/>
      <point x="727" y="1236"/>
      <point x="746" y="1292"/>
      <point x="746" y="1353" type="curve" smooth="yes"/>
      <point x="746" y="1515"/>
      <point x="624" y="1586"/>
      <point x="354" y="1586" type="curve" smooth="yes"/>
      <point x="303" y="1586"/>
      <point x="251" y="1584"/>
      <point x="196" y="1579" type="curve"/>
      <point x="196" y="1460" type="line"/>
      <point x="241" y="1464"/>
      <point x="286" y="1467"/>
      <point x="322" y="1467" type="curve" smooth="yes"/>
      <point x="514" y="1467"/>
      <point x="602" y="1429"/>
      <point x="602" y="1347" type="curve" smooth="yes"/>
      <point x="602" y="1311"/>
      <point x="580" y="1267"/>
      <point x="538" y="1213" type="curve" smooth="yes"/>
      <point x="511" y="1179" type="line" smooth="yes"/>
      <point x="444" y="1095"/>
      <point x="418" y="1033"/>
      <point x="418" y="965" type="curve" smooth="yes"/>
      <point x="418" y="853"/>
      <point x="494" y="779"/>
      <point x="637" y="754" type="curve" smooth="yes"/>
      <point x="912" y="705" type="line"/>
      <point x="912" y="622" type="line"/>
      <point x="637" y="574" type="line" smooth="yes"/>
      <point x="494" y="549"/>
      <point x="418" y="475"/>
      <point x="418" y="363" type="curve" smooth="yes"/>
      <point x="418" y="295"/>
      <point x="444" y="233"/>
      <point x="511" y="149" type="curve" smooth="yes"/>
      <point x="538" y="115" type="line" smooth="yes"/>
      <point x="580" y="61"/>
      <point x="602" y="17"/>
      <point x="602" y="-19" type="curve" smooth="yes"/>
      <point x="602" y="-101"/>
      <point x="514" y="-139"/>
      <point x="322" y="-139" type="curve" smooth="yes"/>
      <point x="286" y="-139"/>
      <point x="241" y="-136"/>
      <point x="196" y="-132" type="curve"/>
      <point x="196" y="-251" type="line"/>
      <point x="251" y="-256"/>
      <point x="303" y="-259"/>
    </contour>
  </outline>
</glyph>
<glyph name="asciitilde" format="2">
  <advance width="1200"/>
  <unicode hex="007E"/>
  <outline>
    <contour>
      <point x="816" y="581" type="curve" smooth="yes"/>
      <point x="971" y="581"/>
      <point x="1074" y="696"/>
      <point x="1074" y="870" type="curve" smooth="yes"/>
      <point x="1074" y="993" type="line"/>
      <point x="936" y="993" type="line"/>
      <point x="936" y="865" type="line" smooth="yes"/>
      <point x="936" y="766"/>
      <point x="896" y="713"/>
      <point x="824" y="713" type="curve" smooth="yes"/>
      <point x="774" y="713"/>
      <point x="736" y="740"/>
      <point x="667" y="822" type="curve" smooth="yes"/>
      <point x="553" y="958"/>
      <point x="488" y="1000"/>
      <point x="384" y="1000" type="curve" smooth="yes"/>
      <point x="229" y="1000"/>
      <point x="126" y="885"/>
      <point x="126" y="711" type="curve" smooth="yes"/>
      <point x="126" y="588" type="line"/>
      <point x="264" y="588" type="line"/>
      <point x="264" y="716" type="line" smooth="yes"/>
      <point x="264" y="815"/>
      <point x="304" y="868"/>
      <point x="376" y="868" type="curve" smooth="yes"/>
      <point x="426" y="868"/>
      <point x="464" y="841"/>
      <point x="533" y="759" type="curve" smooth="yes"/>
      <point x="647" y="623"/>
      <point x="712" y="581"/>
    </contour>
  </outline>
</glyph>
<glyph name="sterling" format="2">
  <advance width="1200"/>
  <unicode hex="00A3"/>
  <outline>
    <contour>
      <point x="202" y="-13" type="line"/>
      <point x="249" y="77"/>
      <point x="308" y="120"/>
      <point x="383" y="120" type="curve" smooth="yes"/>
      <point x="541" y="120"/>
      <point x="633" y="0"/>
      <point x="799" y="0" type="curve" smooth="yes"/>
      <point x="940" y="0"/>
      <point x="1046" y="91"/>
      <point x="1134" y="288" type="curve"/>
      <point x="1004" y="346" type="line"/>
      <point x="936" y="193"/>
      <point x="881" y="140"/>
      <point x="791" y="140" type="curve" smooth="yes"/>
      <point x="652" y="140"/>
      <point x="596" y="246"/>
      <point x="410" y="254" type="curve"/>
      <point x="410" y="264" type="line"/>
      <point x="487" y="312"/>
      <point x="522" y="363"/>
      <point x="522" y="452" type="curve" smooth="yes"/>
      <point x="522" y="617"/>
      <point x="413" y="798"/>
      <point x="413" y="1055" type="curve" smooth="yes"/>
      <point x="413" y="1221"/>
      <point x="515" y="1322"/>
      <point x="685" y="1322" type="curve" smooth="yes"/>
      <point x="796" y="1322"/>
      <point x="876" y="1287"/>
      <point x="968" y="1213" type="curve"/>
      <point x="1053" y="1327" type="line"/>
      <point x="936" y="1425"/>
      <point x="835" y="1462"/>
      <point x="686" y="1462" type="curve" smooth="yes"/>
      <point x="435" y="1462"/>
      <point x="265" y="1300"/>
      <point x="265" y="1061" type="curve" smooth="yes"/>
      <point x="265" y="833"/>
      <point x="390" y="640"/>
      <point x="390" y="454" type="curve" smooth="yes"/>
      <point x="390" y="367"/>
      <point x="356" y="316"/>
      <point x="247" y="244" type="curve" smooth="yes"/>
      <point x="167" y="191"/>
      <point x="121" y="139"/>
      <point x="74" y="48" type="curve"/>
    </contour>
    <contour>
      <point x="84" y="708" type="line"/>
      <point x="947" y="708" type="line"/>
      <point x="947" y="846" type="line"/>
      <point x="84" y="846" type="line"/>
    </contour>
  </outline>
</glyph>
<glyph name="ordfeminine" format="2">
  <advance width="1200"/>
  <unicode hex="00AA"/>
  <outline>
    <contour>
      <point x="447" y="628" type="curve" smooth="yes"/>
      <point x="559" y="628"/>
      <point x="645" y="684"/>
      <point x="702" y="784" type="curve"/>
      <point x="716" y="784" type="line"/>
      <point x="716" y="628" type="line"/>
      <point x="842" y="628" type="line"/>
      <point x="842" y="1169" type="line" smooth="yes"/>
      <point x="842" y="1359"/>
      <point x="731" y="1462"/>
      <point x="526" y="1462" type="curve" smooth="yes"/>
      <point x="414" y="1462"/>
      <point x="307" y="1433"/>
      <point x="212" y="1376" type="curve"/>
      <point x="271" y="1267" type="line"/>
      <point x="352" y="1317"/>
      <point x="437" y="1342"/>
      <point x="527" y="1342" type="curve" smooth="yes"/>
      <point x="653" y="1342"/>
      <point x="710" y="1288"/>
      <point x="710" y="1165" type="curve" smooth="yes"/>
      <point x="710" y="987" type="line" smooth="yes"/>
      <point x="710" y="841"/>
      <point x="622" y="742"/>
      <point x="480" y="742" type="curve" smooth="yes"/>
      <point x="368" y="742"/>
      <point x="308" y="789"/>
      <point x="308" y="884" type="curve" smooth="yes"/>
      <point x="308" y="898" type="line" smooth="yes"/>
      <point x="308" y="995"/>
      <point x="380" y="1047"/>
      <point x="509" y="1047" type="curve" smooth="yes"/>
      <point x="601" y="1047"/>
      <point x="662" y="1030"/>
      <point x="730" y="986" type="curve"/>
      <point x="730" y="1092" type="line"/>
      <point x="658" y="1138"/>
      <point x="586" y="1157"/>
      <point x="486" y="1157" type="curve" smooth="yes"/>
      <point x="297" y="1157"/>
      <point x="170" y="1052"/>
      <point x="170" y="896" type="curve" smooth="yes"/>
      <point x="170" y="881" type="line" smooth="yes"/>
      <point x="170" y="732"/>
      <point x="284" y="628"/>
    </contour>
  </outline>
</glyph>
<glyph name="guillemetleft" format="2">
  <advance width="1200"/>
  <unicode hex="00AB"/>
  <outline>
    <contour>
      <point x="1002" y="29" type="line"/>
      <point x="1092" y="113" type="line"/>
      <point x="728" y="532" type="line"/>
      <point x="1092" y="951" type="line"/>
      <point x="1002" y="1035" type="line"/>
      <point x="542" y="532" type="line"/>
    </contour>
    <contour>
      <point x="540" y="29" type="line"/>
      <point x="630" y="113" type="line"/>
      <point x="266" y="532" type="line"/>
      <point x="630" y="951" type="line"/>
      <point x="540" y="1035" type="line"/>
      <point x="80" y="532" type="line"/>
    </contour>
  </outline>
</glyph>
<glyph name="registered" format="2">
  <advance width="1200"/>
  <unicode hex="00AE"/>
  <outline>
    <contour>
      <point x="600" y="-30" type="curve" smooth="yes"/>
      <point x="961" y="-30"/>
      <point x="1192" y="237"/>
      <point x="1192" y="654" type="curve" smooth="yes"/>
      <point x="1192" y="778" type="line" smooth="yes"/>
      <point x="1192" y="1195"/>
      <point x="961" y="1462"/>
      <point x="600" y="1462" type="curve" smooth="yes"/>
      <point x="239" y="1462"/>
      <point x="8" y="1195"/>
      <point x="8" y="778" type="curve" smooth="yes"/>
      <point x="8" y="654" type="line" smooth="yes"/>
      <point x="8" y="237"/>
      <point x="239" y="-30"/>
    </contour>
    <contour>
      <point x="765" y="305" type="line"/>
      <point x="915" y="305" type="line"/>
      <point x="915" y="311" type="line"/>
      <point x="710" y="673" type="line"/>
      <point x="568" y="673" type="line"/>
    </contour>
    <contour>
      <point x="600" y="60" type="curve" smooth="yes"/>
      <point x="292" y="60"/>
      <point x="108" y="282"/>
      <point x="108" y="653" type="curve" smooth="yes"/>
      <point x="108" y="779" type="line" smooth="yes"/>
      <point x="108" y="1150"/>
      <point x="292" y="1372"/>
      <point x="600" y="1372" type="curve" smooth="yes"/>
      <point x="908" y="1372"/>
      <point x="1092" y="1150"/>
      <point x="1092" y="779" type="curve" smooth="yes"/>
      <point x="1092" y="653" type="line" smooth="yes"/>
      <point x="1092" y="282"/>
      <point x="908" y="60"/>
    </contour>
    <contour>
      <point x="342" y="305" type="line"/>
      <point x="466" y="305" type="line"/>
      <point x="466" y="1015" type="line"/>
      <point x="605" y="1015" type="line" smooth="yes"/>
      <point x="703" y="1015"/>
      <point x="761" y="965"/>
      <point x="761" y="882" type="curve" smooth="yes"/>
      <point x="761" y="866" type="line" smooth="yes"/>
      <point x="761" y="783"/>
      <point x="703" y="733"/>
      <point x="605" y="733" type="curve" smooth="yes"/>
      <point x="419" y="733" type="line"/>
      <point x="419" y="621" type="line"/>
      <point x="606" y="621" type="line" smooth="yes"/>
      <point x="774" y="621"/>
      <point x="887" y="722"/>
      <point x="887" y="871" type="curve" smooth="yes"/>
      <point x="887" y="883" type="line" smooth="yes"/>
      <point x="887" y="1038"/>
      <point x="779" y="1135"/>
      <point x="607" y="1135" type="curve" smooth="yes"/>
      <point x="342" y="1135" type="line"/>
    </contour>
  </outline>
</glyph>
<glyph name="degree" format="2">
  <advance width="1200"/>
  <unicode hex="00B0"/>
  <outline>
    <contour>
      <point x="554" y="824" type="curve" smooth="yes"/>
      <point x="739" y="824"/>
      <point x="878" y="961"/>
      <point x="878" y="1143" type="curve" smooth="yes"/>
      <point x="878" y="1325"/>
      <point x="739" y="1462"/>
      <point x="554" y="1462" type="curve" smooth="yes"/>
      <point x="369" y="1462"/>
      <point x="230" y="1325"/>
      <point x="230" y="1143" type="curve" smooth="yes"/>
      <point x="230" y="961"/>
      <point x="369" y="824"/>
    </contour>
    <contour>
      <point x="554" y="954" type="curve" smooth="yes"/>
      <point x="446" y="954"/>
      <point x="370" y="1032"/>
      <point x="370" y="1143" type="curve" smooth="yes"/>
      <point x="370" y="1254"/>
      <point x="446" y="1332"/>
      <point x="554" y="1332" type="curve" smooth="yes"/>
      <point x="662" y="1332"/>
      <point x="738" y="1254"/>
      <point x="738" y="1143" type="curve" smooth="yes"/>
      <point x="738" y="1032"/>
      <point x="662" y="954"/>
    </contour>
  </outline>
</glyph>
<glyph name="plusminus" format="2">
  <advance width="1200"/>
  <unicode hex="00B1"/>
  <outline>
    <contour>
      <point x="164" y="0" type="line"/>
      <point x="1036" y="0" type="line"/>
      <point x="1036" y="142" type="line"/>
      <point x="164" y="142" type="line"/>
    </contour>
    <contour>
      <point x="153" y="604" type="line"/>
      <point x="1047" y="604" type="line"/>
      <point x="1047" y="734" type="line"/>
      <point x="153" y="734" type="line"/>
    </contour>
    <contour>
      <point x="531" y="248" type="line"/>
      <point x="669" y="248" type="line"/>
      <point x="669" y="1090" type="line"/>
      <point x="531" y="1090" type="line"/>
    </contour>
  </outline>
</glyph>
<glyph name="threesuperior" format="2">
  <advance width="1200"/>
  <unicode hex="00B3"/>
  <outline>
    <contour>
      <point x="601" y="696" type="curve" smooth="yes"/>
      <point x="786" y="696"/>
      <point x="918" y="809"/>
      <point x="918" y="968" type="curve" smooth="yes"/>
      <point x="918" y="974" type="line" smooth="yes"/>
      <point x="918" y="1098"/>
      <point x="846" y="1187"/>
      <point x="721" y="1214" type="curve"/>
      <point x="721" y="1224" type="line"/>
      <point x="833" y="1256"/>
      <point x="894" y="1330"/>
      <point x="894" y="1436" type="curve" smooth="yes"/>
      <point x="894" y="1442" type="line" smooth="yes"/>
      <point x="894" y="1600"/>
      <point x="773" y="1706"/>
      <point x="594" y="1706" type="curve" smooth="yes"/>
      <point x="430" y="1706"/>
      <point x="305" y="1622"/>
      <point x="254" y="1478" type="curve"/>
      <point x="394" y="1430" type="line"/>
      <point x="425" y="1518"/>
      <point x="495" y="1568"/>
      <point x="589" y="1568" type="curve" smooth="yes"/>
      <point x="684" y="1568"/>
      <point x="744" y="1515"/>
      <point x="744" y="1430" type="curve" smooth="yes"/>
      <point x="744" y="1420" type="line" smooth="yes"/>
      <point x="744" y="1332"/>
      <point x="677" y="1280"/>
      <point x="564" y="1280" type="curve" smooth="yes"/>
      <point x="463" y="1280" type="line"/>
      <point x="463" y="1144" type="line"/>
      <point x="577" y="1144" type="line" smooth="yes"/>
      <point x="701" y="1144"/>
      <point x="768" y="1089"/>
      <point x="768" y="988" type="curve" smooth="yes"/>
      <point x="768" y="978" type="line" smooth="yes"/>
      <point x="768" y="891"/>
      <point x="701" y="834"/>
      <point x="594" y="834" type="curve" smooth="yes"/>
      <point x="483" y="834"/>
      <point x="403" y="895"/>
      <point x="368" y="1005" type="curve"/>
      <point x="228" y="957" type="line"/>
      <point x="281" y="790"/>
      <point x="415" y="696"/>
    </contour>
  </outline>
</glyph>
<glyph name="paragraph" format="2">
  <advance width="1200"/>
  <unicode hex="00B6"/>
  <guideline x="-911" y="-415" angle="0"/>
  <guideline x="789" y="544" angle="0"/>
  <outline>
    <contour>
      <point x="632" y="-415" type="line"/>
      <point x="768" y="-415" type="line"/>
      <point x="768" y="1432" type="line"/>
      <point x="528" y="1432" type="line" smooth="yes"/>
      <point x="254" y="1432"/>
      <point x="90" y="1283"/>
      <point x="90" y="1034" type="curve" smooth="yes"/>
      <point x="90" y="1024" type="line" smooth="yes"/>
      <point x="90" y="775"/>
      <point x="254" y="626"/>
      <point x="528" y="626" type="curve" smooth="yes"/>
      <point x="727" y="626" type="line"/>
      <point x="632" y="733" type="line"/>
    </contour>
    <contour>
      <point x="924" y="-415" type="line"/>
      <point x="1060" y="-415" type="line"/>
      <point x="1060" y="1432" type="line"/>
      <point x="924" y="1432" type="line"/>
    </contour>
  </outline>
</glyph>
<glyph name="onesuperior" format="2">
  <advance width="1200"/>
  <unicode hex="00B9"/>
  <outline>
    <contour>
      <point x="546" y="768" type="line"/>
      <point x="694" y="768" type="line"/>
      <point x="694" y="1702" type="line"/>
      <point x="609" y="1702" type="line"/>
      <point x="240" y="1537" type="line"/>
      <point x="300" y="1408" type="line"/>
      <point x="546" y="1520" type="line"/>
    </contour>
    <contour>
      <point x="280" y="700" type="line"/>
      <point x="934" y="700" type="line"/>
      <point x="934" y="842" type="line"/>
      <point x="280" y="842" type="line"/>
    </contour>
  </outline>
</glyph>
<glyph name="onehalf" format="2">
  <advance width="1200"/>
  <unicode hex="00BD"/>
  <guideline x="600" name=" [locked]"/>
  <outline>
    <contour>
      <point x="12" y="-30" type="line"/>
      <point x="146" y="-30" type="line"/>
      <point x="1118" y="1460" type="line"/>
      <point x="984" y="1460" type="line"/>
    </contour>
    <contour>
      <point x="600" y="-30" type="line"/>
      <point x="1150" y="-30" type="line"/>
      <point x="1150" y="98" type="line"/>
      <point x="797" y="98" type="line"/>
      <point x="797" y="108" type="line"/>
      <point x="958" y="221" type="line" smooth="yes"/>
      <point x="1090" y="313"/>
      <point x="1133" y="374"/>
      <point x="1133" y="469" type="curve" smooth="yes"/>
      <point x="1133" y="473" type="line" smooth="yes"/>
      <point x="1133" y="589"/>
      <point x="1045" y="688"/>
      <point x="895" y="688" type="curve" smooth="yes"/>
      <point x="736" y="688"/>
      <point x="618" y="591"/>
      <point x="600" y="434" type="curve"/>
      <point x="741" y="414" type="line"/>
      <point x="752" y="512"/>
      <point x="804" y="558"/>
      <point x="889" y="558" type="curve" smooth="yes"/>
      <point x="959" y="558"/>
      <point x="991" y="521"/>
      <point x="991" y="468" type="curve" smooth="yes"/>
      <point x="991" y="465" type="line" smooth="yes"/>
      <point x="991" y="413"/>
      <point x="966" y="379"/>
      <point x="860" y="300" type="curve" smooth="yes"/>
      <point x="600" y="106" type="line"/>
    </contour>
    <contour>
      <point x="280" y="750" type="line"/>
      <point x="418" y="750" type="line"/>
      <point x="418" y="1460" type="line"/>
      <point x="340" y="1460" type="line"/>
      <point x="10" y="1308" type="line"/>
      <point x="65" y="1188" type="line"/>
      <point x="280" y="1290" type="line"/>
    </contour>
  </outline>
</glyph>
<glyph name="multiply" format="2">
  <advance width="1200"/>
  <unicode hex="00D7"/>
  <outline>
    <contour>
      <point x="274" y="199" type="line"/>
      <point x="1020" y="954" type="line"/>
      <point x="926" y="1047" type="line"/>
      <point x="180" y="292" type="line"/>
    </contour>
    <contour>
      <point x="926" y="199" type="line"/>
      <point x="1020" y="292" type="line"/>
      <point x="274" y="1047" type="line"/>
      <point x="180" y="954" type="line"/>
    </contour>
  </outline>
</glyph>
<glyph name="Thorn" format="2">
  <advance width="1200"/>
  <unicode hex="00DE"/>
  <outline>
    <contour>
      <point x="254" y="340" type="line"/>
      <point x="605" y="340" type="line" smooth="yes"/>
      <point x="870" y="340"/>
      <point x="1044" y="506"/>
      <point x="1044" y="757" type="curve" smooth="yes"/>
      <point x="1044" y="763" type="line" smooth="yes"/>
      <point x="1044" y="1015"/>
      <point x="869" y="1182"/>
      <point x="605" y="1182" type="curve" smooth="yes"/>
      <point x="254" y="1182" type="line"/>
      <point x="254" y="1046" type="line"/>
      <point x="600" y="1046" type="line" smooth="yes"/>
      <point x="791" y="1046"/>
      <point x="896" y="947"/>
      <point x="896" y="769" type="curve" smooth="yes"/>
      <point x="896" y="753" type="line" smooth="yes"/>
      <point x="896" y="575"/>
      <point x="791" y="476"/>
      <point x="600" y="476" type="curve" smooth="yes"/>
      <point x="254" y="476" type="line"/>
    </contour>
    <contour>
      <point x="174" y="0" type="line"/>
      <point x="318" y="0" type="line"/>
      <point x="318" y="1432" type="line"/>
      <point x="174" y="1432" type="line"/>
    </contour>
  </outline>
</glyph>
<glyph name="ae" format="2">
  <advance width="1200"/>
  <unicode hex="00E6"/>
  <anchor x="617" y="1045" name="top"/>
  <outline>
    <contour>
      <point x="329" y="-30" type="curve" smooth="yes"/>
      <point x="487" y="-30"/>
      <point x="594" y="90"/>
      <point x="623" y="299" type="curve"/>
      <point x="558" y="299" type="line"/>
      <point x="587" y="101"/>
      <point x="710" y="-30"/>
      <point x="866" y="-30" type="curve" smooth="yes"/>
      <point x="991" y="-30"/>
      <point x="1087" y="46"/>
      <point x="1161" y="195" type="curve"/>
      <point x="1047" y="257" type="line"/>
      <point x="995" y="151"/>
      <point x="939" y="104"/>
      <point x="866" y="104" type="curve" smooth="yes"/>
      <point x="732" y="104"/>
      <point x="651" y="258"/>
      <point x="651" y="512" type="curve" smooth="yes"/>
      <point x="651" y="545" type="line" smooth="yes"/>
      <point x="651" y="781"/>
      <point x="735" y="941"/>
      <point x="858" y="941" type="curve" smooth="yes"/>
      <point x="968" y="941"/>
      <point x="1024" y="833"/>
      <point x="1024" y="620" type="curve"/>
      <point x="1024" y="607" type="line"/>
      <point x="613" y="607" type="line"/>
      <point x="613" y="479" type="line"/>
      <point x="1162" y="479" type="line"/>
      <point x="1164" y="521"/>
      <point x="1166" y="572"/>
      <point x="1166" y="620" type="curve" smooth="yes"/>
      <point x="1166" y="902"/>
      <point x="1060" y="1075"/>
      <point x="867" y="1075" type="curve" smooth="yes"/>
      <point x="730" y="1075"/>
      <point x="611" y="962"/>
      <point x="575" y="782" type="curve"/>
      <point x="637" y="782" type="line"/>
      <point x="619" y="965"/>
      <point x="528" y="1075"/>
      <point x="358" y="1075" type="curve" smooth="yes"/>
      <point x="244" y="1075"/>
      <point x="144" y="1022"/>
      <point x="67" y="922" type="curve"/>
      <point x="176" y="834" type="line"/>
      <point x="231" y="906"/>
      <point x="292" y="941"/>
      <point x="362" y="941" type="curve" smooth="yes"/>
      <point x="470" y="941"/>
      <point x="521" y="867"/>
      <point x="521" y="711" type="curve" smooth="yes"/>
      <point x="521" y="425" type="line" smooth="yes"/>
      <point x="521" y="217"/>
      <point x="456" y="104"/>
      <point x="337" y="104" type="curve" smooth="yes"/>
      <point x="237" y="104"/>
      <point x="170" y="186"/>
      <point x="170" y="308" type="curve" smooth="yes"/>
      <point x="170" y="325" type="line" smooth="yes"/>
      <point x="170" y="458"/>
      <point x="245" y="538"/>
      <point x="371" y="538" type="curve" smooth="yes"/>
      <point x="435" y="538"/>
      <point x="481" y="525"/>
      <point x="534" y="491" type="curve"/>
      <point x="534" y="619" type="line"/>
      <point x="477" y="654"/>
      <point x="420" y="670"/>
      <point x="348" y="670" type="curve" smooth="yes"/>
      <point x="157" y="670"/>
      <point x="28" y="529"/>
      <point x="28" y="318" type="curve" smooth="yes"/>
      <point x="28" y="310" type="line" smooth="yes"/>
      <point x="28" y="111"/>
      <point x="152" y="-30"/>
    </contour>
  </outline>
</glyph>
<glyph name="dcaron" format="2">
  <advance width="1200"/>
  <unicode hex="010F"/>
  <outline>
    <contour>
      <point x="523" y="-30" type="curve" smooth="yes"/>
      <point x="672" y="-30"/>
      <point x="770" y="46"/>
      <point x="824" y="172" type="curve"/>
      <point x="830" y="172" type="line"/>
      <point x="830" y="0" type="line"/>
      <point x="956" y="0" type="line"/>
      <point x="956" y="1460" type="line"/>
      <point x="815" y="1460" type="line"/>
      <point x="815" y="897" type="line"/>
      <point x="810" y="897" type="line"/>
      <point x="752" y="1008"/>
      <point x="661" y="1075"/>
      <point x="515" y="1075" type="curve" smooth="yes"/>
      <point x="274" y="1075"/>
      <point x="116" y="873"/>
      <point x="116" y="554" type="curve" smooth="yes"/>
      <point x="116" y="493" type="line" smooth="yes"/>
      <point x="116" y="177"/>
      <point x="280" y="-30"/>
    </contour>
    <contour>
      <point x="542" y="104" type="curve" smooth="yes"/>
      <point x="369" y="104"/>
      <point x="262" y="252"/>
      <point x="262" y="500" type="curve" smooth="yes"/>
      <point x="262" y="547" type="line" smooth="yes"/>
      <point x="262" y="797"/>
      <point x="367" y="941"/>
      <point x="542" y="941" type="curve" smooth="yes"/>
      <point x="713" y="941"/>
      <point x="821" y="792"/>
      <point x="821" y="547" type="curve" smooth="yes"/>
      <point x="821" y="500" type="line" smooth="yes"/>
      <point x="821" y="254"/>
      <point x="712" y="104"/>
    </contour>
    <contour>
      <point x="1085" y="982" type="line"/>
      <point x="1205" y="982" type="line"/>
      <point x="1255" y="1462" type="line"/>
      <point x="1105" y="1462" type="line"/>
    </contour>
  </outline>
</glyph>
<glyph name="dcroat" format="2">
  <advance width="1200"/>
  <unicode hex="0111"/>
  <outline>
    <contour>
      <point x="547" y="-30" type="curve" smooth="yes"/>
      <point x="696" y="-30"/>
      <point x="813" y="47"/>
      <point x="878" y="177" type="curve"/>
      <point x="884" y="177" type="line"/>
      <point x="884" y="0" type="line"/>
      <point x="1010" y="0" type="line"/>
      <point x="1010" y="1490" type="line"/>
      <point x="872" y="1490" type="line"/>
      <point x="872" y="820" type="line"/>
      <point x="867" y="820" type="line"/>
      <point x="796" y="940"/>
      <point x="686" y="1011"/>
      <point x="539" y="1011" type="curve" smooth="yes"/>
      <point x="280" y="1011"/>
      <point x="110" y="813"/>
      <point x="110" y="511" type="curve" smooth="yes"/>
      <point x="110" y="470" type="line" smooth="yes"/>
      <point x="110" y="168"/>
      <point x="286" y="-30"/>
    </contour>
    <contour>
      <point x="566" y="104" type="curve" smooth="yes"/>
      <point x="375" y="104"/>
      <point x="256" y="247"/>
      <point x="256" y="477" type="curve" smooth="yes"/>
      <point x="256" y="504" type="line" smooth="yes"/>
      <point x="256" y="734"/>
      <point x="373" y="877"/>
      <point x="566" y="877" type="curve" smooth="yes"/>
      <point x="755" y="877"/>
      <point x="875" y="732"/>
      <point x="875" y="504" type="curve" smooth="yes"/>
      <point x="875" y="477" type="line" smooth="yes"/>
      <point x="875" y="249"/>
      <point x="754" y="104"/>
    </contour>
    <contour>
      <point x="490" y="1196" type="line"/>
      <point x="1200" y="1196" type="line"/>
      <point x="1200" y="1316" type="line"/>
      <point x="490" y="1316" type="line"/>
    </contour>
  </outline>
</glyph>
<glyph name="Hbar" format="2">
  <advance width="1200"/>
  <unicode hex="0126"/>
  <outline>
    <contour>
      <point x="853" y="0" type="line"/>
      <point x="997" y="0" type="line"/>
      <point x="997" y="1432" type="line"/>
      <point x="853" y="1432" type="line"/>
    </contour>
    <contour>
      <point x="203" y="0" type="line"/>
      <point x="347" y="0" type="line"/>
      <point x="347" y="1432" type="line"/>
      <point x="203" y="1432" type="line"/>
    </contour>
    <contour>
      <point x="269" y="646" type="line"/>
      <point x="930" y="646" type="line"/>
      <point x="930" y="780" type="line"/>
      <point x="269" y="780" type="line"/>
    </contour>
    <contour>
      <point x="20" y="1044" type="line"/>
      <point x="1180" y="1044" type="line"/>
      <point x="1180" y="1178" type="line"/>
      <point x="20" y="1178" type="line"/>
    </contour>
  </outline>
</glyph>
<glyph name="hbar" format="2">
  <advance width="1200"/>
  <unicode hex="0127"/>
  <outline>
    <contour>
      <point x="190" y="0" type="line"/>
      <point x="330" y="0" type="line"/>
      <point x="330" y="537" type="line" smooth="yes"/>
      <point x="330" y="744"/>
      <point x="451" y="880"/>
      <point x="636" y="880" type="curve" smooth="yes"/>
      <point x="796" y="880"/>
      <point x="880" y="782"/>
      <point x="880" y="596" type="curve" smooth="yes"/>
      <point x="880" y="0" type="line"/>
      <point x="1020" y="0" type="line"/>
      <point x="1020" y="611" type="line" smooth="yes"/>
      <point x="1020" y="861"/>
      <point x="891" y="1011"/>
      <point x="674" y="1011" type="curve" smooth="yes"/>
      <point x="533" y="1011"/>
      <point x="416" y="950"/>
      <point x="335" y="833" type="curve"/>
      <point x="328" y="833" type="line"/>
      <point x="328" y="1490" type="line"/>
      <point x="190" y="1490" type="line"/>
    </contour>
    <contour>
      <point x="0" y="1196" type="line"/>
      <point x="688" y="1196" type="line"/>
      <point x="688" y="1316" type="line"/>
      <point x="0" y="1316" type="line"/>
    </contour>
  </outline>
</glyph>
<glyph name="kgreenlandic" format="2">
  <advance width="1200"/>
  <unicode hex="0138"/>
  <outline>
    <contour>
      <point x="864" y="0" type="line"/>
      <point x="1056" y="0" type="line"/>
      <point x="460" y="623" type="line"/>
      <point x="460" y="511" type="line"/>
      <point x="1026" y="1045" type="line"/>
      <point x="837" y="1045" type="line"/>
      <point x="332" y="566" type="line"/>
      <point x="332" y="560" type="line"/>
    </contour>
    <contour>
      <point x="196" y="0" type="line"/>
      <point x="337" y="0" type="line"/>
      <point x="337" y="1045" type="line"/>
      <point x="196" y="1045" type="line"/>
    </contour>
  </outline>
</glyph>
<glyph name="Lcaron" format="2">
  <advance width="1200"/>
  <unicode hex="013D"/>
  <anchor x="632" y="0" name="bottom"/>
  <anchor x="285" y="1432" name="top"/>
  <outline>
    <contour>
      <point x="610" y="952" type="line"/>
      <point x="730" y="952" type="line"/>
      <point x="798" y="1432" type="line"/>
      <point x="648" y="1432" type="line"/>
    </contour>
    <component base="L"/>
  </outline>
</glyph>
<glyph name="Lslash" format="2">
  <advance width="1200"/>
  <unicode hex="0141"/>
  <outline>
    <contour>
      <point x="290" y="0" type="line"/>
      <point x="1090" y="0" type="line"/>
      <point x="1090" y="138" type="line"/>
      <point x="436" y="138" type="line"/>
      <point x="436" y="1432" type="line"/>
      <point x="290" y="1432" type="line"/>
    </contour>
    <contour>
      <point x="14" y="418" type="line"/>
      <point x="314" y="604" type="line"/>
      <point x="383" y="632" type="line"/>
      <point x="932" y="958" type="line"/>
      <point x="932" y="1114" type="line"/>
      <point x="415" y="805" type="line"/>
      <point x="331" y="768" type="line"/>
      <point x="14" y="576" type="line"/>
    </contour>
  </outline>
</glyph>
<glyph name="eng" format="2">
  <advance width="1200"/>
  <unicode hex="014B"/>
  <outline>
    <contour>
      <point x="740" y="-440" type="curve" smooth="yes"/>
      <point x="920" y="-440"/>
      <point x="1031" y="-317"/>
      <point x="1031" y="-120" type="curve" smooth="yes"/>
      <point x="1031" y="675" type="line" smooth="yes"/>
      <point x="1031" y="926"/>
      <point x="902" y="1075"/>
      <point x="685" y="1075" type="curve" smooth="yes"/>
      <point x="539" y="1075"/>
      <point x="418" y="1008"/>
      <point x="337" y="883" type="curve"/>
      <point x="330" y="883" type="line"/>
      <point x="330" y="1045" type="line"/>
      <point x="201" y="1045" type="line"/>
      <point x="201" y="0" type="line"/>
      <point x="341" y="0" type="line"/>
      <point x="341" y="601" type="line" smooth="yes"/>
      <point x="341" y="807"/>
      <point x="463" y="944"/>
      <point x="647" y="944" type="curve" smooth="yes"/>
      <point x="807" y="944"/>
      <point x="891" y="846"/>
      <point x="891" y="660" type="curve" smooth="yes"/>
      <point x="891" y="-122" type="line" smooth="yes"/>
      <point x="891" y="-243"/>
      <point x="840" y="-304"/>
      <point x="738" y="-304" type="curve" smooth="yes"/>
      <point x="678" y="-304"/>
      <point x="617" y="-278"/>
      <point x="566" y="-231" type="curve"/>
      <point x="480" y="-337" type="line"/>
      <point x="551" y="-403"/>
      <point x="644" y="-440"/>
    </contour>
  </outline>
</glyph>
<glyph name="OE" format="2">
  <advance width="1200"/>
  <unicode hex="0152"/>
  <outline>
    <contour>
      <point x="399" y="-30" type="curve" smooth="yes"/>
      <point x="526" y="-30"/>
      <point x="618" y="66"/>
      <point x="663" y="247" type="curve"/>
      <point x="652" y="247" type="line"/>
      <point x="652" y="0" type="line"/>
      <point x="1180" y="0" type="line"/>
      <point x="1180" y="136" type="line"/>
      <point x="780" y="136" type="line"/>
      <point x="780" y="1296" type="line"/>
      <point x="1164" y="1296" type="line"/>
      <point x="1164" y="1432" type="line"/>
      <point x="652" y="1432" type="line"/>
      <point x="652" y="1185" type="line"/>
      <point x="663" y="1185" type="line"/>
      <point x="618" y="1366"/>
      <point x="526" y="1462"/>
      <point x="399" y="1462" type="curve" smooth="yes"/>
      <point x="174" y="1462"/>
      <point x="38" y="1187"/>
      <point x="38" y="734" type="curve" smooth="yes"/>
      <point x="38" y="698" type="line" smooth="yes"/>
      <point x="38" y="245"/>
      <point x="174" y="-30"/>
    </contour>
    <contour>
      <point x="415" y="106" type="curve" smooth="yes"/>
      <point x="264" y="106"/>
      <point x="182" y="313"/>
      <point x="182" y="693" type="curve" smooth="yes"/>
      <point x="182" y="739" type="line" smooth="yes"/>
      <point x="182" y="1119"/>
      <point x="264" y="1326"/>
      <point x="415" y="1326" type="curve" smooth="yes"/>
      <point x="563" y="1326"/>
      <point x="644" y="1123"/>
      <point x="644" y="749" type="curve" smooth="yes"/>
      <point x="644" y="683" type="line" smooth="yes"/>
      <point x="644" y="309"/>
      <point x="563" y="106"/>
    </contour>
    <contour>
      <point x="725" y="667" type="line"/>
      <point x="1094" y="667" type="line"/>
      <point x="1094" y="803" type="line"/>
      <point x="725" y="803" type="line"/>
    </contour>
  </outline>
</glyph>
<glyph name="tcaron" format="2">
  <advance width="1200"/>
  <unicode hex="0165"/>
  <outline>
    <contour>
      <point x="763" y="-30" type="curve" smooth="yes"/>
      <point x="881" y="-30"/>
      <point x="984" y="15"/>
      <point x="1070" y="104" type="curve"/>
      <point x="982" y="209" type="line"/>
      <point x="915" y="140"/>
      <point x="846" y="106"/>
      <point x="763" y="106" type="curve" smooth="yes"/>
      <point x="623" y="106"/>
      <point x="558" y="181"/>
      <point x="558" y="344" type="curve" smooth="yes"/>
      <point x="558" y="1326" type="line"/>
      <point x="415" y="1326" type="line"/>
      <point x="415" y="332" type="line" smooth="yes"/>
      <point x="415" y="104"/>
      <point x="544" y="-30"/>
    </contour>
    <contour>
      <point x="118" y="873" type="line"/>
      <point x="1004" y="873" type="line"/>
      <point x="1004" y="1005" type="line"/>
      <point x="118" y="1005" type="line"/>
    </contour>
    <contour>
      <point x="742" y="1154" type="line"/>
      <point x="862" y="1154" type="line"/>
      <point x="928" y="1562" type="line"/>
      <point x="768" y="1562" type="line"/>
    </contour>
  </outline>
</glyph>
<glyph name="Uogonek" format="2">
  <advance width="1200"/>
  <unicode hex="0172"/>
  <outline>
    <contour>
      <point x="708" y="-530" type="curve" smooth="yes"/>
      <point x="768" y="-530"/>
      <point x="821" y="-517"/>
      <point x="871" y="-490" type="curve"/>
      <point x="835" y="-378" type="line"/>
      <point x="799" y="-397"/>
      <point x="764" y="-406"/>
      <point x="720" y="-406" type="curve" smooth="yes"/>
      <point x="637" y="-406"/>
      <point x="579" y="-352"/>
      <point x="579" y="-274" type="curve" smooth="yes"/>
      <point x="579" y="-184"/>
      <point x="620" y="-122"/>
      <point x="763" y="-29" type="curve" smooth="yes"/>
      <point x="965" y="103"/>
      <point x="1044" y="240"/>
      <point x="1044" y="441" type="curve" smooth="yes"/>
      <point x="1044" y="1432" type="line"/>
      <point x="898" y="1432" type="line"/>
      <point x="898" y="451" type="line" smooth="yes"/>
      <point x="898" y="241"/>
      <point x="784" y="110"/>
      <point x="600" y="110" type="curve" smooth="yes"/>
      <point x="416" y="110"/>
      <point x="302" y="241"/>
      <point x="302" y="451" type="curve" smooth="yes"/>
      <point x="302" y="1432" type="line"/>
      <point x="156" y="1432" type="line"/>
      <point x="156" y="441" type="line" smooth="yes"/>
      <point x="156" y="162"/>
      <point x="337" y="-30"/>
      <point x="600" y="-30" type="curve" smooth="yes"/>
      <point x="648" y="-30"/>
      <point x="693" y="-23"/>
      <point x="735" y="-11" type="curve"/>
      <point x="785" y="78" type="line"/>
      <point x="557" y="-13"/>
      <point x="445" y="-133"/>
      <point x="445" y="-286" type="curve" smooth="yes"/>
      <point x="445" y="-426"/>
      <point x="557" y="-530"/>
    </contour>
  </outline>
</glyph>
<glyph name="longs" format="2">
  <advance width="1200"/>
  <unicode hex="017F"/>
  <outline>
    <contour>
      <point x="420" y="0" type="line"/>
      <point x="560" y="0" type="line"/>
      <point x="560" y="1088" type="line" smooth="yes"/>
      <point x="560" y="1272"/>
      <point x="632" y="1362"/>
      <point x="777" y="1362" type="curve" smooth="yes"/>
      <point x="867" y="1362"/>
      <point x="937" y="1331"/>
      <point x="1011" y="1257" type="curve"/>
      <point x="1098" y="1356" type="line"/>
      <point x="1002" y="1451"/>
      <point x="905" y="1492"/>
      <point x="779" y="1492" type="curve" smooth="yes"/>
      <point x="558" y="1492"/>
      <point x="420" y="1341"/>
      <point x="420" y="1098" type="curve" smooth="yes"/>
    </contour>
    <contour>
      <point x="160" y="923" type="line"/>
      <point x="486" y="923" type="line"/>
      <point x="486" y="1045" type="line"/>
      <point x="160" y="1045" type="line"/>
    </contour>
  </outline>
</glyph>
<glyph name="Dhook" format="2">
  <advance width="1200"/>
  <unicode hex="018A"/>
  <outline>
    <contour>
      <point x="378" y="0" type="line"/>
      <point x="602" y="0" type="line" smooth="yes"/>
      <point x="939" y="0"/>
      <point x="1134" y="249"/>
      <point x="1134" y="678" type="curve" smooth="yes"/>
      <point x="1134" y="754" type="line" smooth="yes"/>
      <point x="1134" y="1183"/>
      <point x="939" y="1432"/>
      <point x="602" y="1432" type="curve" smooth="yes"/>
      <point x="378" y="1432" type="line"/>
    </contour>
    <contour>
      <point x="66" y="912" type="curve"/>
      <point x="198" y="964" type="line"/>
      <point x="177" y="1014"/>
      <point x="168" y="1058"/>
      <point x="168" y="1107" type="curve" smooth="yes"/>
      <point x="168" y="1226"/>
      <point x="241" y="1298"/>
      <point x="368" y="1298" type="curve" smooth="yes"/>
      <point x="468" y="1298" type="line"/>
      <point x="468" y="1432" type="line"/>
      <point x="366" y="1432" type="line" smooth="yes"/>
      <point x="163" y="1432"/>
      <point x="20" y="1296"/>
      <point x="20" y="1110" type="curve" smooth="yes"/>
      <point x="20" y="1048"/>
      <point x="35" y="985"/>
    </contour>
    <contour>
      <point x="522" y="134" type="line"/>
      <point x="522" y="1298" type="line"/>
      <point x="608" y="1298" type="line" smooth="yes"/>
      <point x="862" y="1298"/>
      <point x="986" y="1121"/>
      <point x="986" y="759" type="curve" smooth="yes"/>
      <point x="986" y="673" type="line" smooth="yes"/>
      <point x="986" y="311"/>
      <point x="862" y="134"/>
      <point x="608" y="134" type="curve" smooth="yes"/>
    </contour>
  </outline>
</glyph>
<glyph name="khook" format="2">
  <advance width="1200"/>
  <unicode hex="0199"/>
  <outline>
    <contour>
      <point x="196" y="0" type="line"/>
      <point x="337" y="0" type="line"/>
      <point x="337" y="1083" type="line" smooth="yes"/>
      <point x="337" y="1257"/>
      <point x="404" y="1340"/>
      <point x="545" y="1340" type="curve" smooth="yes"/>
      <point x="606" y="1340"/>
      <point x="652" y="1329"/>
      <point x="697" y="1303" type="curve"/>
      <point x="755" y="1422" type="line"/>
      <point x="686" y="1461"/>
      <point x="623" y="1478"/>
      <point x="543" y="1478" type="curve" smooth="yes"/>
      <point x="329" y="1478"/>
      <point x="196" y="1329"/>
      <point x="196" y="1089" type="curve" smooth="yes"/>
    </contour>
    <contour>
      <point x="864" y="0" type="line"/>
      <point x="1056" y="0" type="line"/>
      <point x="460" y="623" type="line"/>
      <point x="460" y="511" type="line"/>
      <point x="1026" y="1045" type="line"/>
      <point x="837" y="1045" type="line"/>
      <point x="332" y="566" type="line"/>
      <point x="332" y="560" type="line"/>
    </contour>
  </outline>
</glyph>
<glyph name="yhook" format="2">
  <advance width="1200"/>
  <unicode hex="01B4"/>
  <outline>
    <contour>
      <point x="249" y="-440" type="curve" smooth="yes"/>
      <point x="399" y="-440"/>
      <point x="506" y="-348"/>
      <point x="551" y="-179" type="curve" smooth="yes"/>
      <point x="843" y="917" type="line" smooth="yes"/>
      <point x="900" y="1131"/>
      <point x="972" y="1216"/>
      <point x="1096" y="1216" type="curve" smooth="yes"/>
      <point x="1146" y="1216"/>
      <point x="1181" y="1205"/>
      <point x="1214" y="1186" type="curve"/>
      <point x="1270" y="1303" type="line"/>
      <point x="1217" y="1334"/>
      <point x="1159" y="1350"/>
      <point x="1092" y="1350" type="curve" smooth="yes"/>
      <point x="902" y="1350"/>
      <point x="771" y="1211"/>
      <point x="705" y="943" type="curve" smooth="yes"/>
      <point x="567" y="379" type="line"/>
      <point x="506" y="110" type="line"/>
      <point x="493" y="110" type="line"/>
      <point x="425" y="-144" type="line" smooth="yes"/>
      <point x="395" y="-255"/>
      <point x="338" y="-306"/>
      <point x="245" y="-306" type="curve" smooth="yes"/>
      <point x="190" y="-306"/>
      <point x="143" y="-289"/>
      <point x="92" y="-250" type="curve"/>
      <point x="17" y="-359" type="line"/>
      <point x="85" y="-413"/>
      <point x="163" y="-440"/>
    </contour>
    <contour>
      <point x="463" y="-64" type="line"/>
      <point x="525" y="162" type="line"/>
      <point x="513" y="162" type="line"/>
      <point x="452" y="379" type="line"/>
      <point x="230" y="1045" type="line"/>
      <point x="75" y="1045" type="line"/>
    </contour>
  </outline>
</glyph>
<glyph name="DZcaron" format="2">
  <advance width="1200"/>
  <unicode hex="01C4"/>
  <outline>
    <contour>
      <point x="48" y="0" type="line"/>
      <point x="253" y="0" type="line" smooth="yes"/>
      <point x="517" y="0"/>
      <point x="642" y="212"/>
      <point x="642" y="658" type="curve" smooth="yes"/>
      <point x="642" y="774" type="line" smooth="yes"/>
      <point x="642" y="1220"/>
      <point x="517" y="1432"/>
      <point x="253" y="1432" type="curve" smooth="yes"/>
      <point x="48" y="1432" type="line"/>
    </contour>
    <contour>
      <point x="182" y="128" type="line"/>
      <point x="182" y="1304" type="line"/>
      <point x="246" y="1304" type="line" smooth="yes"/>
      <point x="429" y="1304"/>
      <point x="506" y="1149"/>
      <point x="506" y="779" type="curve" smooth="yes"/>
      <point x="506" y="653" type="line" smooth="yes"/>
      <point x="506" y="283"/>
      <point x="429" y="128"/>
      <point x="246" y="128" type="curve" smooth="yes"/>
    </contour>
    <contour>
      <point x="648" y="0" type="line"/>
      <point x="1192" y="0" type="line"/>
      <point x="1192" y="134" type="line"/>
      <point x="790" y="134" type="line"/>
      <point x="1175" y="1316" type="line"/>
      <point x="1175" y="1432" type="line"/>
      <point x="675" y="1432" type="line"/>
      <point x="675" y="1298" type="line"/>
      <point x="1033" y="1298" type="line"/>
      <point x="648" y="116" type="line"/>
    </contour>
    <contour>
      <point x="855" y="1638" type="line"/>
      <point x="995" y="1638" type="line"/>
      <point x="1223" y="1982" type="line"/>
      <point x="1223" y="1992" type="line"/>
      <point x="1079" y="1992" type="line"/>
      <point x="913" y="1717" type="line"/>
      <point x="937" y="1717" type="line"/>
      <point x="771" y="1992" type="line"/>
      <point x="627" y="1992" type="line"/>
      <point x="627" y="1982" type="line"/>
    </contour>
  </outline>
</glyph>
<glyph name="dzcaron" format="2">
  <advance width="1200"/>
  <unicode hex="01C6"/>
  <outline>
    <contour>
      <point x="295" y="-30" type="curve" smooth="yes"/>
      <point x="378" y="-30"/>
      <point x="441" y="29"/>
      <point x="479" y="137" type="curve"/>
      <point x="485" y="137" type="line"/>
      <point x="485" y="0" type="line"/>
      <point x="602" y="0" type="line"/>
      <point x="602" y="1460" type="line"/>
      <point x="466" y="1460" type="line"/>
      <point x="466" y="933" type="line"/>
      <point x="460" y="933" type="line"/>
      <point x="415" y="1027"/>
      <point x="360" y="1075"/>
      <point x="280" y="1075" type="curve" smooth="yes"/>
      <point x="119" y="1075"/>
      <point x="20" y="856"/>
      <point x="20" y="538" type="curve" smooth="yes"/>
      <point x="20" y="507" type="line" smooth="yes"/>
      <point x="20" y="189"/>
      <point x="132" y="-30"/>
    </contour>
    <contour>
      <point x="325" y="104" type="curve" smooth="yes"/>
      <point x="225" y="104"/>
      <point x="160" y="244"/>
      <point x="160" y="494" type="curve" smooth="yes"/>
      <point x="160" y="551" type="line" smooth="yes"/>
      <point x="160" y="801"/>
      <point x="220" y="941"/>
      <point x="320" y="941" type="curve" smooth="yes"/>
      <point x="422" y="941"/>
      <point x="478" y="795"/>
      <point x="478" y="551" type="curve" smooth="yes"/>
      <point x="478" y="494" type="line" smooth="yes"/>
      <point x="478" y="250"/>
      <point x="423" y="104"/>
    </contour>
    <contour>
      <point x="696" y="0" type="line"/>
      <point x="1200" y="0" type="line"/>
      <point x="1200" y="136" type="line"/>
      <point x="844" y="136" type="line"/>
      <point x="1188" y="929" type="line"/>
      <point x="1188" y="1045" type="line"/>
      <point x="704" y="1045" type="line"/>
      <point x="704" y="909" type="line"/>
      <point x="1040" y="909" type="line"/>
      <point x="696" y="116" type="line"/>
    </contour>
    <contour>
      <point x="883" y="1251" type="line"/>
      <point x="1023" y="1251" type="line"/>
      <point x="1215" y="1595" type="line"/>
      <point x="1215" y="1605" type="line"/>
      <point x="1071" y="1605" type="line"/>
      <point x="939" y="1330" type="line"/>
      <point x="967" y="1330" type="line"/>
      <point x="835" y="1605" type="line"/>
      <point x="691" y="1605" type="line"/>
      <point x="691" y="1595" type="line"/>
    </contour>
  </outline>
</glyph>
<glyph name="NJ" format="2">
  <advance width="1200"/>
  <unicode hex="01CA"/>
  <outline>
    <contour>
      <point x="26" y="0" type="line"/>
      <point x="156" y="0" type="line"/>
      <point x="156" y="715" type="line"/>
      <point x="137" y="1227" type="line"/>
      <point x="145" y="1227" type="line"/>
      <point x="441" y="0" type="line"/>
      <point x="615" y="0" type="line"/>
      <point x="615" y="1432" type="line"/>
      <point x="485" y="1432" type="line"/>
      <point x="485" y="768" type="line"/>
      <point x="505" y="256" type="line"/>
      <point x="497" y="256" type="line"/>
      <point x="216" y="1432" type="line"/>
      <point x="26" y="1432" type="line"/>
    </contour>
    <contour>
      <point x="903" y="-30" type="curve" smooth="yes"/>
      <point x="1068" y="-30"/>
      <point x="1170" y="87"/>
      <point x="1170" y="271" type="curve" smooth="yes"/>
      <point x="1170" y="1432" type="line"/>
      <point x="1030" y="1432" type="line"/>
      <point x="1030" y="277" type="line" smooth="yes"/>
      <point x="1030" y="163"/>
      <point x="984" y="104"/>
      <point x="894" y="104" type="curve" smooth="yes"/>
      <point x="844" y="104"/>
      <point x="804" y="122"/>
      <point x="759" y="163" type="curve"/>
      <point x="675" y="59" type="line"/>
      <point x="738" y="1"/>
      <point x="817" y="-30"/>
    </contour>
  </outline>
</glyph>
<glyph name="Nj" format="2">
  <advance width="1200"/>
  <unicode hex="01CB"/>
  <outline>
    <contour>
      <point x="26" y="0" type="line"/>
      <point x="160" y="0" type="line"/>
      <point x="160" y="735" type="line"/>
      <point x="137" y="1227" type="line"/>
      <point x="145" y="1227" type="line"/>
      <point x="535" y="0" type="line"/>
      <point x="695" y="0" type="line"/>
      <point x="695" y="1432" type="line"/>
      <point x="561" y="1432" type="line"/>
      <point x="561" y="758" type="line"/>
      <point x="594" y="266" type="line"/>
      <point x="586" y="266" type="line"/>
      <point x="212" y="1432" type="line"/>
      <point x="26" y="1432" type="line"/>
    </contour>
    <contour>
      <point x="800" y="-440" type="curve" smooth="yes"/>
      <point x="987" y="-440"/>
      <point x="1106" y="-302"/>
      <point x="1106" y="-85" type="curve" smooth="yes"/>
      <point x="1106" y="1045" type="line"/>
      <point x="966" y="1045" type="line"/>
      <point x="966" y="-87" type="line" smooth="yes"/>
      <point x="966" y="-231"/>
      <point x="908" y="-306"/>
      <point x="798" y="-306" type="curve" smooth="yes"/>
      <point x="737" y="-306"/>
      <point x="685" y="-286"/>
      <point x="623" y="-240" type="curve"/>
      <point x="548" y="-352" type="line"/>
      <point x="625" y="-411"/>
      <point x="709" y="-440"/>
    </contour>
    <contour>
      <point x="1036" y="1289" type="curve" smooth="yes"/>
      <point x="1112" y="1289"/>
      <point x="1172" y="1350"/>
      <point x="1172" y="1427" type="curve" smooth="yes"/>
      <point x="1172" y="1505"/>
      <point x="1114" y="1564"/>
      <point x="1036" y="1564" type="curve" smooth="yes"/>
      <point x="959" y="1564"/>
      <point x="898" y="1503"/>
      <point x="898" y="1428" type="curve" smooth="yes"/>
      <point x="898" y="1352"/>
      <point x="961" y="1289"/>
    </contour>
  </outline>
</glyph>
<glyph name="nj" format="2">
  <advance width="1200"/>
  <unicode hex="01CC"/>
  <outline>
    <contour>
      <point x="795" y="-440" type="curve" smooth="yes"/>
      <point x="988" y="-440"/>
      <point x="1112" y="-300"/>
      <point x="1112" y="-79" type="curve" smooth="yes"/>
      <point x="1112" y="1045" type="line"/>
      <point x="972" y="1045" type="line"/>
      <point x="972" y="-81" type="line" smooth="yes"/>
      <point x="972" y="-229"/>
      <point x="911" y="-306"/>
      <point x="793" y="-306" type="curve" smooth="yes"/>
      <point x="725" y="-306"/>
      <point x="668" y="-285"/>
      <point x="603" y="-234" type="curve"/>
      <point x="529" y="-344" type="line"/>
      <point x="610" y="-407"/>
      <point x="703" y="-440"/>
    </contour>
    <contour>
      <point x="80" y="0" type="line"/>
      <point x="220" y="0" type="line"/>
      <point x="220" y="641" type="line" smooth="yes"/>
      <point x="220" y="820"/>
      <point x="317" y="945"/>
      <point x="456" y="945" type="curve" smooth="yes"/>
      <point x="575" y="945"/>
      <point x="630" y="871"/>
      <point x="630" y="714" type="curve" smooth="yes"/>
      <point x="630" y="0" type="line"/>
      <point x="770" y="0" type="line"/>
      <point x="770" y="732" type="line" smooth="yes"/>
      <point x="770" y="946"/>
      <point x="667" y="1075"/>
      <point x="495" y="1075" type="curve" smooth="yes"/>
      <point x="378" y="1075"/>
      <point x="281" y="1012"/>
      <point x="216" y="895" type="curve"/>
      <point x="208" y="895" type="line"/>
      <point x="208" y="1045" type="line"/>
      <point x="80" y="1045" type="line"/>
    </contour>
    <contour>
      <point x="1042" y="1289" type="curve" smooth="yes"/>
      <point x="1118" y="1289"/>
      <point x="1178" y="1350"/>
      <point x="1178" y="1427" type="curve" smooth="yes"/>
      <point x="1178" y="1505"/>
      <point x="1120" y="1564"/>
      <point x="1042" y="1564" type="curve" smooth="yes"/>
      <point x="965" y="1564"/>
      <point x="904" y="1503"/>
      <point x="904" y="1428" type="curve" smooth="yes"/>
      <point x="904" y="1352"/>
      <point x="967" y="1289"/>
    </contour>
  </outline>
</glyph>
<glyph name="tildecomb" format="2">
  <unicode hex="0303"/>
  <anchor x="0" y="1045" name="_top"/>
  <outline>
    <contour>
      <point x="165" y="1264" type="curve" smooth="yes"/>
      <point x="280" y="1264"/>
      <point x="350" y="1355"/>
      <point x="350" y="1505" type="curve" smooth="yes"/>
      <point x="350" y="1602" type="line"/>
      <point x="220" y="1602" type="line"/>
      <point x="220" y="1505" type="line" smooth="yes"/>
      <point x="220" y="1433"/>
      <point x="197" y="1394"/>
      <point x="153" y="1394" type="curve" smooth="yes"/>
      <point x="116" y="1394"/>
      <point x="93" y="1410"/>
      <point x="41" y="1475" type="curve" smooth="yes"/>
      <point x="-41" y="1579"/>
      <point x="-86" y="1607"/>
      <point x="-161" y="1607" type="curve" smooth="yes"/>
      <point x="-277" y="1607"/>
      <point x="-350" y="1514"/>
      <point x="-350" y="1366" type="curve" smooth="yes"/>
      <point x="-350" y="1269" type="line"/>
      <point x="-220" y="1269" type="line"/>
      <point x="-220" y="1366" type="line" smooth="yes"/>
      <point x="-220" y="1438"/>
      <point x="-196" y="1477"/>
      <point x="-153" y="1477" type="curve" smooth="yes"/>
      <point x="-117" y="1477"/>
      <point x="-94" y="1461"/>
      <point x="-39" y="1393" type="curve" smooth="yes"/>
      <point x="41" y="1294"/>
      <point x="89" y="1264"/>
    </contour>
  </outline>
</glyph>
<glyph name="brevecomb" format="2">
  <unicode hex="0306"/>
  <anchor x="0" y="1045" name="_top"/>
  <outline>
    <contour>
      <point x="0" y="1250" type="curve" smooth="yes"/>
      <point x="197" y="1250"/>
      <point x="336" y="1391"/>
      <point x="336" y="1591" type="curve" smooth="yes"/>
      <point x="336" y="1605" type="line"/>
      <point x="196" y="1605" type="line"/>
      <point x="196" y="1585" type="line" smooth="yes"/>
      <point x="196" y="1460"/>
      <point x="120" y="1380"/>
      <point x="0" y="1380" type="curve" smooth="yes"/>
      <point x="-120" y="1380"/>
      <point x="-196" y="1460"/>
      <point x="-196" y="1585" type="curve" smooth="yes"/>
      <point x="-196" y="1605" type="line"/>
      <point x="-336" y="1605" type="line"/>
      <point x="-336" y="1591" type="line" smooth="yes"/>
      <point x="-336" y="1391"/>
      <point x="-197" y="1250"/>
    </contour>
  </outline>
</glyph>
<glyph name="dotaccentcomb" format="2">
  <unicode hex="0307"/>
  <anchor x="0" y="1045" name="_top"/>
  <outline>
    <contour>
      <point x="0" y="1289" type="curve" smooth="yes"/>
      <point x="80" y="1289"/>
      <point x="141" y="1351"/>
      <point x="141" y="1429" type="curve" smooth="yes"/>
      <point x="141" y="1507"/>
      <point x="80" y="1567"/>
      <point x="0" y="1567" type="curve" smooth="yes"/>
      <point x="-80" y="1567"/>
      <point x="-139" y="1507"/>
      <point x="-139" y="1429" type="curve" smooth="yes"/>
      <point x="-139" y="1351"/>
      <point x="-80" y="1289"/>
    </contour>
  </outline>
</glyph>
<glyph name="ringcomb" format="2">
  <unicode hex="030A"/>
  <anchor x="0" y="1045" name="_top"/>
  <outline>
    <contour>
      <point x="0" y="1163" type="curve" smooth="yes"/>
      <point x="157" y="1163"/>
      <point x="274" y="1276"/>
      <point x="274" y="1429" type="curve" smooth="yes"/>
      <point x="274" y="1582"/>
      <point x="157" y="1695"/>
      <point x="0" y="1695" type="curve" smooth="yes"/>
      <point x="-157" y="1695"/>
      <point x="-274" y="1582"/>
      <point x="-274" y="1429" type="curve" smooth="yes"/>
      <point x="-274" y="1276"/>
      <point x="-157" y="1163"/>
    </contour>
    <contour>
      <point x="0" y="1287" type="curve" smooth="yes"/>
      <point x="-81" y="1287"/>
      <point x="-140" y="1347"/>
      <point x="-140" y="1429" type="curve" smooth="yes"/>
      <point x="-140" y="1511"/>
      <point x="-81" y="1571"/>
      <point x="0" y="1571" type="curve" smooth="yes"/>
      <point x="81" y="1571"/>
      <point x="140" y="1511"/>
      <point x="140" y="1429" type="curve" smooth="yes"/>
      <point x="140" y="1347"/>
      <point x="81" y="1287"/>
    </contour>
  </outline>
</glyph>
<glyph name="caroncomb" format="2">
  <unicode hex="030C"/>
  <anchor x="0" y="1045" name="_top"/>
  <outline>
    <contour>
      <point x="-80" y="1251" type="line"/>
      <point x="80" y="1251" type="line"/>
      <point x="346" y="1595" type="line"/>
      <point x="346" y="1605" type="line"/>
      <point x="184" y="1605" type="line"/>
      <point x="-12" y="1330" type="line"/>
      <point x="12" y="1330" type="line"/>
      <point x="-184" y="1605" type="line"/>
      <point x="-346" y="1605" type="line"/>
      <point x="-346" y="1595" type="line"/>
    </contour>
  </outline>
</glyph>
<glyph name="commaaccentcomb" format="2">
  <unicode hex="0326"/>
  <anchor x="0" y="0" name="_bottom"/>
  <outline>
    <contour>
      <point x="-82" y="-751" type="line"/>
      <point x="66" y="-521" type="line" smooth="yes"/>
      <point x="115" y="-445"/>
      <point x="135" y="-389"/>
      <point x="135" y="-336" type="curve" smooth="yes"/>
      <point x="135" y="-245"/>
      <point x="76" y="-185"/>
      <point x="-13" y="-185" type="curve" smooth="yes"/>
      <point x="-93" y="-185"/>
      <point x="-155" y="-245"/>
      <point x="-155" y="-322" type="curve" smooth="yes"/>
      <point x="-155" y="-401"/>
      <point x="-94" y="-458"/>
      <point x="-4" y="-461" type="curve"/>
      <point x="-5" y="-429" type="line"/>
      <point x="-180" y="-687" type="line"/>
    </contour>
  </outline>
</glyph>
<glyph name="Germandbls" format="2">
  <advance width="1200"/>
  <unicode hex="1E9E"/>
  <outline>
    <contour>
      <point x="775" y="-30" type="curve" smooth="yes"/>
      <point x="1002" y="-30"/>
      <point x="1150" y="135"/>
      <point x="1150" y="390" type="curve" smooth="yes"/>
      <point x="1150" y="420" type="line" smooth="yes"/>
      <point x="1150" y="696"/>
      <point x="1004" y="852"/>
      <point x="747" y="852" type="curve"/>
      <point x="773" y="806" type="line"/>
      <point x="773" y="859" type="line"/>
      <point x="1000" y="1362" type="line"/>
      <point x="1000" y="1432" type="line"/>
      <point x="572" y="1432" type="line" smooth="yes"/>
      <point x="287" y="1432"/>
      <point x="130" y="1273"/>
      <point x="130" y="984" type="curve" smooth="yes"/>
      <point x="130" y="0" type="line"/>
      <point x="274" y="0" type="line"/>
      <point x="274" y="976" type="line" smooth="yes"/>
      <point x="274" y="1193"/>
      <point x="370" y="1296"/>
      <point x="574" y="1296" type="curve" smooth="yes"/>
      <point x="815" y="1296" type="line"/>
      <point x="815" y="1288" type="line"/>
      <point x="596" y="802" type="line"/>
      <point x="596" y="732" type="line"/>
      <point x="694" y="732" type="line" smooth="yes"/>
      <point x="896" y="732"/>
      <point x="1004" y="627"/>
      <point x="1004" y="430" type="curve" smooth="yes"/>
      <point x="1004" y="404" type="line" smooth="yes"/>
      <point x="1004" y="222"/>
      <point x="918" y="110"/>
      <point x="779" y="110" type="curve" smooth="yes"/>
      <point x="674" y="110"/>
      <point x="594" y="157"/>
      <point x="542" y="248" type="curve"/>
      <point x="418" y="171" type="line"/>
      <point x="490" y="43"/>
      <point x="620" y="-30"/>
    </contour>
  </outline>
</glyph>
<glyph name="endash" format="2">
  <advance width="1200"/>
  <unicode hex="2013"/>
  <outline>
    <contour>
      <point x="120" y="553" type="line"/>
      <point x="1080" y="553" type="line"/>
      <point x="1080" y="699" type="line"/>
      <point x="120" y="699" type="line"/>
    </contour>
  </outline>
</glyph>
<glyph name="emdash" format="2">
  <advance width="1200"/>
  <unicode hex="2014"/>
  <outline>
    <contour>
      <point x="98" y="553" type="line"/>
      <point x="1102" y="553" type="line"/>
      <point x="1102" y="699" type="line"/>
      <point x="98" y="699" type="line"/>
    </contour>
  </outline>
</glyph>
<glyph name="ellipsis" format="2">
  <advance width="1200"/>
  <unicode hex="2026"/>
  <outline>
    <contour>
      <point x="197" y="-30" type="curve" smooth="yes"/>
      <point x="266" y="-30"/>
      <point x="318" y="23"/>
      <point x="318" y="92" type="curve" smooth="yes"/>
      <point x="318" y="159"/>
      <point x="265" y="212"/>
      <point x="197" y="212" type="curve" smooth="yes"/>
      <point x="130" y="212"/>
      <point x="76" y="159"/>
      <point x="76" y="92" type="curve" smooth="yes"/>
      <point x="76" y="23"/>
      <point x="129" y="-30"/>
    </contour>
    <contour>
      <point x="1003" y="-30" type="curve" smooth="yes"/>
      <point x="1072" y="-30"/>
      <point x="1124" y="23"/>
      <point x="1124" y="92" type="curve" smooth="yes"/>
      <point x="1124" y="159"/>
      <point x="1071" y="212"/>
      <point x="1003" y="212" type="curve" smooth="yes"/>
      <point x="936" y="212"/>
      <point x="882" y="159"/>
      <point x="882" y="92" type="curve" smooth="yes"/>
      <point x="882" y="23"/>
      <point x="935" y="-30"/>
    </contour>
    <contour>
      <point x="600" y="-30" type="curve" smooth="yes"/>
      <point x="669" y="-30"/>
      <point x="721" y="23"/>
      <point x="721" y="92" type="curve" smooth="yes"/>
      <point x="721" y="159"/>
      <point x="668" y="212"/>
      <point x="600" y="212" type="curve" smooth="yes"/>
      <point x="533" y="212"/>
      <point x="479" y="159"/>
      <point x="479" y="92" type="curve" smooth="yes"/>
      <point x="479" y="23"/>
      <point x="532" y="-30"/>
    </contour>
  </outline>
</glyph>
<glyph name="minute" format="2">
  <advance width="1200"/>
  <unicode hex="2032"/>
  <outline>
    <contour>
      <point x="340" y="846" type="line"/>
      <point x="508" y="846" type="line"/>
      <point x="605" y="1460" type="line"/>
      <point x="410" y="1460" type="line"/>
    </contour>
  </outline>
</glyph>
<glyph name="guilsinglleft" format="2">
  <advance width="1200"/>
  <unicode hex="2039"/>
  <outline>
    <contour>
      <point x="802" y="29" type="line"/>
      <point x="892" y="113" type="line"/>
      <point x="528" y="532" type="line"/>
      <point x="892" y="951" type="line"/>
      <point x="802" y="1035" type="line"/>
      <point x="342" y="532" type="line"/>
    </contour>
  </outline>
</glyph>
<glyph name="foursuperior" format="2">
  <advance width="1200"/>
  <unicode hex="2074"/>
  <outline>
    <contour>
      <point x="659" y="700" type="line"/>
      <point x="797" y="700" type="line"/>
      <point x="797" y="1702" type="line"/>
      <point x="651" y="1702" type="line"/>
      <point x="188" y="1060" type="line"/>
      <point x="188" y="943" type="line"/>
      <point x="966" y="943" type="line"/>
      <point x="966" y="1073" type="line"/>
      <point x="752" y="1073" type="line"/>
      <point x="718" y="1069" type="line"/>
      <point x="352" y="1069" type="line"/>
      <point x="352" y="1079" type="line"/>
      <point x="655" y="1499" type="line"/>
      <point x="720" y="1499" type="line"/>
      <point x="665" y="1569" type="line"/>
      <point x="665" y="1028" type="line"/>
      <point x="659" y="999" type="line"/>
    </contour>
  </outline>
</glyph>
<glyph name="trademark" format="2">
  <advance width="1200"/>
  <unicode hex="2122"/>
  <outline>
    <contour>
      <point x="590" y="626" type="line"/>
      <point x="704" y="626" type="line"/>
      <point x="704" y="936" type="line"/>
      <point x="696" y="1205" type="line"/>
      <point x="706" y="1205" type="line"/>
      <point x="836" y="811" type="line"/>
      <point x="934" y="811" type="line"/>
      <point x="1064" y="1205" type="line"/>
      <point x="1074" y="1205" type="line"/>
      <point x="1066" y="936" type="line"/>
      <point x="1066" y="626" type="line"/>
      <point x="1180" y="626" type="line"/>
      <point x="1180" y="1458" type="line"/>
      <point x="1056" y="1458" type="line"/>
      <point x="928" y="1091" type="line"/>
      <point x="890" y="951" type="line"/>
      <point x="880" y="951" type="line"/>
      <point x="842" y="1091" type="line"/>
      <point x="714" y="1458" type="line"/>
      <point x="590" y="1458" type="line"/>
    </contour>
    <contour>
      <point x="204" y="626" type="line"/>
      <point x="326" y="626" type="line"/>
      <point x="326" y="1422" type="line"/>
      <point x="204" y="1422" type="line"/>
    </contour>
    <contour>
      <point x="20" y="1340" type="line"/>
      <point x="510" y="1340" type="line"/>
      <point x="510" y="1458" type="line"/>
      <point x="20" y="1458" type="line"/>
    </contour>
  </outline>
</glyph>
<glyph name="upArrow" format="2">
  <advance width="1200"/>
  <unicode hex="2191"/>
  <outline>
    <contour>
      <point x="154" y="621" type="line"/>
      <point x="588" y="1036" type="line"/>
      <point x="612" y="1036" type="line"/>
      <point x="1046" y="621" type="line"/>
      <point x="1137" y="717" type="line"/>
      <point x="600" y="1207" type="line"/>
      <point x="63" y="717" type="line"/>
    </contour>
    <contour>
      <point x="529" y="45" type="line"/>
      <point x="671" y="45" type="line"/>
      <point x="671" y="680" type="line"/>
      <point x="659" y="1108" type="line"/>
      <point x="541" y="1108" type="line"/>
      <point x="529" y="680" type="line"/>
    </contour>
  </outline>
</glyph>
<glyph name="rightArrow" format="2">
  <advance width="1200"/>
  <unicode hex="2192"/>
  <outline>
    <contour>
      <point x="642" y="89" type="line"/>
      <point x="1132" y="626" type="line"/>
      <point x="642" y="1163" type="line"/>
      <point x="546" y="1072" type="line"/>
      <point x="961" y="638" type="line"/>
      <point x="961" y="614" type="line"/>
      <point x="546" y="180" type="line"/>
    </contour>
    <contour>
      <point x="100" y="557" type="line"/>
      <point x="605" y="557" type="line"/>
      <point x="1033" y="567" type="line"/>
      <point x="1033" y="685" type="line"/>
      <point x="605" y="695" type="line"/>
      <point x="100" y="695" type="line"/>
    </contour>
  </outline>
</glyph>
<glyph name="rightwardsDoubleArrow" format="2">
  <advance width="1200"/>
  <unicode hex="21D2"/>
  <outline>
    <contour>
      <point x="636" y="53" type="line"/>
      <point x="1178" y="626" type="line"/>
      <point x="636" y="1199" type="line"/>
      <point x="542" y="1106" type="line"/>
      <point x="1005" y="629" type="line"/>
      <point x="1005" y="623" type="line"/>
      <point x="542" y="146" type="line"/>
    </contour>
    <contour>
      <point x="44" y="397" type="line"/>
      <point x="622" y="397" type="line"/>
      <point x="954" y="417" type="line"/>
      <point x="954" y="529" type="line"/>
      <point x="44" y="529" type="line"/>
    </contour>
    <contour>
      <point x="44" y="723" type="line"/>
      <point x="954" y="723" type="line"/>
      <point x="954" y="835" type="line"/>
      <point x="622" y="855" type="line"/>
      <point x="44" y="855" type="line"/>
    </contour>
  </outline>
</glyph>
<glyph name="uni21E7" format="2">
  <advance width="1200"/>
  <unicode hex="21E7"/>
  <guideline x="824" y="1258" angle="0"/>
  <guideline x="824" y="182" angle="0"/>
  <outline>
    <contour>
      <point x="428" y="177" type="curve" smooth="yes"/>
      <point x="772" y="177" type="line" smooth="yes"/>
      <point x="862" y="177"/>
      <point x="912" y="230"/>
      <point x="912" y="327" type="curve" smooth="yes"/>
      <point x="912" y="488" type="line"/>
      <point x="1050" y="488" type="line" smooth="yes"/>
      <point x="1126" y="488"/>
      <point x="1160" y="519"/>
      <point x="1160" y="587" type="curve" smooth="yes"/>
      <point x="1160" y="621"/>
      <point x="1142" y="654"/>
      <point x="1106" y="697" type="curve" smooth="yes"/>
      <point x="663" y="1228" type="line" smooth="yes"/>
      <point x="645" y="1249"/>
      <point x="622" y="1258"/>
      <point x="600" y="1258" type="curve" smooth="yes"/>
      <point x="577" y="1258"/>
      <point x="554" y="1249"/>
      <point x="536" y="1228" type="curve" smooth="yes"/>
      <point x="93" y="696" type="line" smooth="yes"/>
      <point x="57" y="653"/>
      <point x="40" y="620"/>
      <point x="40" y="587" type="curve" smooth="yes"/>
      <point x="40" y="519"/>
      <point x="74" y="488"/>
      <point x="150" y="488" type="curve" smooth="yes"/>
      <point x="288" y="488" type="line"/>
      <point x="288" y="327" type="line" smooth="yes"/>
      <point x="288" y="230"/>
      <point x="338" y="177"/>
    </contour>
    <contour>
      <point x="458" y="297" type="line" smooth="yes"/>
      <point x="426" y="297"/>
      <point x="408" y="315"/>
      <point x="408" y="347" type="curve" smooth="yes"/>
      <point x="409" y="608" type="line"/>
      <point x="129" y="608" type="line"/>
      <point x="153" y="575" type="line"/>
      <point x="631" y="1147" type="line"/>
      <point x="569" y="1147" type="line"/>
      <point x="1047" y="575" type="line"/>
      <point x="1071" y="608" type="line"/>
      <point x="791" y="608" type="line"/>
      <point x="792" y="347" type="line" smooth="yes"/>
      <point x="792" y="315"/>
      <point x="774" y="297"/>
      <point x="742" y="297" type="curve" smooth="yes"/>
    </contour>
  </outline>
</glyph>
<glyph name="propellor" format="2">
  <advance width="1200"/>
  <unicode hex="2318"/>
  <outline>
    <contour>
      <point x="276" y="174" type="curve" smooth="yes"/>
      <point x="406" y="174"/>
      <point x="494" y="268"/>
      <point x="494" y="410" type="curve" smooth="yes"/>
      <point x="494" y="498" type="line"/>
      <point x="706" y="498" type="line"/>
      <point x="706" y="410" type="line" smooth="yes"/>
      <point x="706" y="268"/>
      <point x="794" y="174"/>
      <point x="924" y="174" type="curve" smooth="yes"/>
      <point x="1060" y="174"/>
      <point x="1148" y="264"/>
      <point x="1148" y="398" type="curve" smooth="yes"/>
      <point x="1148" y="528"/>
      <point x="1054" y="614"/>
      <point x="912" y="614" type="curve" smooth="yes"/>
      <point x="826" y="614" type="line"/>
      <point x="826" y="818" type="line"/>
      <point x="912" y="818" type="line" smooth="yes"/>
      <point x="1054" y="818"/>
      <point x="1148" y="904"/>
      <point x="1148" y="1034" type="curve" smooth="yes"/>
      <point x="1148" y="1170"/>
      <point x="1060" y="1258"/>
      <point x="924" y="1258" type="curve" smooth="yes"/>
      <point x="794" y="1258"/>
      <point x="706" y="1164"/>
      <point x="706" y="1022" type="curve" smooth="yes"/>
      <point x="706" y="934" type="line"/>
      <point x="494" y="934" type="line"/>
      <point x="494" y="1022" type="line" smooth="yes"/>
      <point x="494" y="1164"/>
      <point x="406" y="1258"/>
      <point x="276" y="1258" type="curve" smooth="yes"/>
      <point x="142" y="1258"/>
      <point x="52" y="1170"/>
      <point x="52" y="1034" type="curve" smooth="yes"/>
      <point x="52" y="904"/>
      <point x="146" y="818"/>
      <point x="288" y="818" type="curve" smooth="yes"/>
      <point x="374" y="818" type="line"/>
      <point x="374" y="614" type="line"/>
      <point x="288" y="614" type="line" smooth="yes"/>
      <point x="146" y="614"/>
      <point x="52" y="528"/>
      <point x="52" y="398" type="curve" smooth="yes"/>
      <point x="52" y="264"/>
      <point x="142" y="174"/>
    </contour>
    <contour>
      <point x="276" y="292" type="curve" smooth="yes"/>
      <point x="212" y="292"/>
      <point x="172" y="330"/>
      <point x="172" y="394" type="curve" smooth="yes"/>
      <point x="172" y="458"/>
      <point x="218" y="498"/>
      <point x="290" y="498" type="curve" smooth="yes"/>
      <point x="374" y="498" type="line"/>
      <point x="374" y="416" type="line" smooth="yes"/>
      <point x="374" y="338"/>
      <point x="338" y="292"/>
    </contour>
    <contour>
      <point x="290" y="934" type="line" smooth="yes"/>
      <point x="218" y="934"/>
      <point x="172" y="974"/>
      <point x="172" y="1038" type="curve" smooth="yes"/>
      <point x="172" y="1102"/>
      <point x="212" y="1140"/>
      <point x="276" y="1140" type="curve" smooth="yes"/>
      <point x="338" y="1140"/>
      <point x="374" y="1094"/>
      <point x="374" y="1016" type="curve" smooth="yes"/>
      <point x="374" y="934" type="line"/>
    </contour>
    <contour>
      <point x="494" y="614" type="line"/>
      <point x="494" y="818" type="line"/>
      <point x="706" y="818" type="line"/>
      <point x="706" y="614" type="line"/>
    </contour>
    <contour>
      <point x="924" y="292" type="curve" smooth="yes"/>
      <point x="862" y="292"/>
      <point x="826" y="338"/>
      <point x="826" y="416" type="curve" smooth="yes"/>
      <point x="826" y="498" type="line"/>
      <point x="910" y="498" type="line" smooth="yes"/>
      <point x="982" y="498"/>
      <point x="1028" y="458"/>
      <point x="1028" y="394" type="curve" smooth="yes"/>
      <point x="1028" y="330"/>
      <point x="988" y="292"/>
    </contour>
    <contour>
      <point x="826" y="934" type="line"/>
      <point x="826" y="1016" type="line" smooth="yes"/>
      <point x="826" y="1094"/>
      <point x="862" y="1140"/>
      <point x="924" y="1140" type="curve" smooth="yes"/>
      <point x="988" y="1140"/>
      <point x="1028" y="1102"/>
      <point x="1028" y="1038" type="curve" smooth="yes"/>
      <point x="1028" y="974"/>
      <point x="982" y="934"/>
      <point x="910" y="934" type="curve" smooth="yes"/>
    </contour>
  </outline>
</glyph>
<glyph name="optionKey" format="2">
  <advance width="1200"/>
  <unicode hex="2325"/>
  <outline>
    <contour>
      <point x="768" y="162" type="line"/>
      <point x="918" y="162" type="line"/>
      <point x="429" y="1270" type="line"/>
      <point x="279" y="1270" type="line"/>
    </contour>
    <contour>
      <point x="24" y="1120" type="line"/>
      <point x="369" y="1120" type="line"/>
      <point x="349" y="1270" type="line"/>
      <point x="24" y="1270" type="line"/>
    </contour>
    <contour>
      <point x="831" y="162" type="line"/>
      <point x="1176" y="162" type="line"/>
      <point x="1176" y="312" type="line"/>
      <point x="808" y="312" type="line"/>
    </contour>
    <contour>
      <point x="713" y="1120" type="line"/>
      <point x="1176" y="1120" type="line"/>
      <point x="1176" y="1270" type="line"/>
      <point x="713" y="1270" type="line"/>
    </contour>
  </outline>
</glyph>
<glyph name="boxHeavyTripleDashVertical" format="2">
  <advance width="1200"/>
  <unicode hex="2507"/>
  <outline>
    <contour>
      <point x="474" y="366" type="line"/>
      <point x="726" y="366" type="line"/>
      <point x="726" y="922" type="line"/>
      <point x="474" y="922" type="line"/>
    </contour>
    <contour>
      <point x="474" y="-467" type="line"/>
      <point x="726" y="-467" type="line"/>
      <point x="726" y="88" type="line"/>
      <point x="474" y="88" type="line"/>
    </contour>
    <contour>
      <point x="474" y="1200" type="line"/>
      <point x="726" y="1200" type="line"/>
      <point x="726" y="1755" type="line"/>
      <point x="474" y="1755" type="line"/>
    </contour>
  </outline>
</glyph>
<glyph name="boxLightQuadrupleDashVertical" format="2">
  <advance width="1200"/>
  <unicode hex="250A"/>
  <outline>
    <contour>
      <point x="530" y="1347" type="line"/>
      <point x="670" y="1347" type="line"/>
      <point x="670" y="1816" type="line"/>
      <point x="530" y="1816" type="line"/>
    </contour>
    <contour>
      <point x="530" y="-528" type="line"/>
      <point x="670" y="-528" type="line"/>
      <point x="670" y="-59" type="line"/>
      <point x="530" y="-59" type="line"/>
    </contour>
    <contour>
      <point x="530" y="97" type="line"/>
      <point x="670" y="97" type="line"/>
      <point x="670" y="566" type="line"/>
      <point x="530" y="566" type="line"/>
    </contour>
    <contour>
      <point x="530" y="722" type="line"/>
      <point x="670" y="722" type="line"/>
      <point x="670" y="1191" type="line"/>
      <point x="530" y="1191" type="line"/>
    </contour>
  </outline>
</glyph>
<glyph name="boxHeavyQuadrupleDashVertical" format="2">
  <advance width="1200"/>
  <unicode hex="250B"/>
  <outline>
    <contour>
      <point x="474" y="1347" type="line"/>
      <point x="726" y="1347" type="line"/>
      <point x="726" y="1816" type="line"/>
      <point x="474" y="1816" type="line"/>
    </contour>
    <contour>
      <point x="474" y="-528" type="line"/>
      <point x="726" y="-528" type="line"/>
      <point x="726" y="-59" type="line"/>
      <point x="474" y="-59" type="line"/>
    </contour>
    <contour>
      <point x="474" y="97" type="line"/>
      <point x="726" y="97" type="line"/>
      <point x="726" y="566" type="line"/>
      <point x="474" y="566" type="line"/>
    </contour>
    <contour>
      <point x="474" y="722" type="line"/>
      <point x="726" y="722" type="line"/>
      <point x="726" y="1191" type="line"/>
      <point x="474" y="1191" type="line"/>
    </contour>
  </outline>
</glyph>
<glyph name="boxDownHeavyAndRightLight" format="2">
  <advance width="1200"/>
  <unicode hex="250E"/>
  <outline>
    <contour>
      <point x="474" y="-656" type="line"/>
      <point x="726" y="-656" type="line"/>
      <point x="726" y="574" type="line"/>
      <point x="1270" y="574" type="line"/>
      <point x="1270" y="714" type="line"/>
      <point x="474" y="714" type="line"/>
    </contour>
  </outline>
</glyph>
<glyph name="boxHeavyDownAndRight" format="2">
  <advance width="1200"/>
  <unicode hex="250F"/>
  <outline>
    <contour>
      <point x="474" y="-656" type="line"/>
      <point x="726" y="-656" type="line"/>
      <point x="726" y="518" type="line"/>
      <point x="1270" y="518" type="line"/>
      <point x="1270" y="770" type="line"/>
      <point x="474" y="770" type="line"/>
    </contour>
  </outline>
</glyph>
<glyph name="boxLightDownAndLeft" format="2">
  <advance width="1200"/>
  <unicode hex="2510"/>
  <outline>
    <contour>
      <point x="530" y="-656" type="line"/>
      <point x="670" y="-656" type="line"/>
      <point x="670" y="714" type="line"/>
      <point x="-70" y="714" type="line"/>
      <point x="-70" y="574" type="line"/>
      <point x="530" y="574" type="line"/>
    </contour>
  </outline>
</glyph>
<glyph name="boxUpLightAndRightDownHeavy" format="2">
  <advance width="1200"/>
  <unicode hex="2522"/>
  <outline>
    <contour>
      <point x="474" y="-656" type="line"/>
      <point x="726" y="-656" type="line"/>
      <point x="726" y="518" type="line"/>
      <point x="1270" y="518" type="line"/>
      <point x="1270" y="770" type="line"/>
      <point x="670" y="770" type="line"/>
      <point x="670" y="1944" type="line"/>
      <point x="530" y="1944" type="line"/>
      <point x="530" y="770" type="line"/>
      <point x="474" y="770" type="line"/>
    </contour>
  </outline>
</glyph>
<glyph name="boxHeavyVerticalAndRight" format="2">
  <advance width="1200"/>
  <unicode hex="2523"/>
  <outline>
    <contour>
      <point x="474" y="-656" type="line"/>
      <point x="726" y="-656" type="line"/>
      <point x="726" y="518" type="line"/>
      <point x="1270" y="518" type="line"/>
      <point x="1270" y="770" type="line"/>
      <point x="726" y="770" type="line"/>
      <point x="726" y="1944" type="line"/>
      <point x="474" y="1944" type="line"/>
    </contour>
  </outline>
</glyph>
<glyph name="boxDownHeavyAndLeftUpLight" format="2">
  <advance width="1200"/>
  <unicode hex="2527"/>
  <outline>
    <contour>
      <point x="474" y="-656" type="line"/>
      <point x="726" y="-656" type="line"/>
      <point x="726" y="714" type="line"/>
      <point x="670" y="714" type="line"/>
      <point x="670" y="1944" type="line"/>
      <point x="530" y="1944" type="line"/>
      <point x="530" y="714" type="line"/>
      <point x="-70" y="714" type="line"/>
      <point x="-70" y="574" type="line"/>
      <point x="474" y="574" type="line"/>
    </contour>
  </outline>
</glyph>
<glyph name="boxVerticalHeavyAndLeftLight" format="2">
  <advance width="1200"/>
  <unicode hex="2528"/>
  <outline>
    <contour>
      <point x="474" y="-656" type="line"/>
      <point x="726" y="-656" type="line"/>
      <point x="726" y="1944" type="line"/>
      <point x="474" y="1944" type="line"/>
      <point x="474" y="714" type="line"/>
      <point x="-70" y="714" type="line"/>
      <point x="-70" y="574" type="line"/>
      <point x="474" y="574" type="line"/>
    </contour>
  </outline>
</glyph>
<glyph name="boxLeftHeavyAndRightDownLight" format="2">
  <advance width="1200"/>
  <unicode hex="252D"/>
  <outline>
    <contour>
      <point x="530" y="-656" type="line"/>
      <point x="670" y="-656" type="line"/>
      <point x="670" y="574" type="line"/>
      <point x="1270" y="574" type="line"/>
      <point x="1270" y="714" type="line"/>
      <point x="670" y="714" type="line"/>
      <point x="670" y="770" type="line"/>
      <point x="-70" y="770" type="line"/>
      <point x="-70" y="518" type="line"/>
      <point x="530" y="518" type="line"/>
    </contour>
  </outline>
</glyph>
<glyph name="boxDownLightAndHorizontalHeavy" format="2">
  <advance width="1200"/>
  <unicode hex="252F"/>
  <outline>
    <contour>
      <point x="530" y="-656" type="line"/>
      <point x="670" y="-656" type="line"/>
      <point x="670" y="518" type="line"/>
      <point x="1270" y="518" type="line"/>
      <point x="1270" y="770" type="line"/>
      <point x="-70" y="770" type="line"/>
      <point x="-70" y="518" type="line"/>
      <point x="530" y="518" type="line"/>
    </contour>
  </outline>
</glyph>
<glyph name="boxLeftHeavyAndRightUpLight" format="2">
  <advance width="1200"/>
  <unicode hex="2535"/>
  <outline>
    <contour>
      <point x="-70" y="518" type="line"/>
      <point x="670" y="518" type="line"/>
      <point x="670" y="574" type="line"/>
      <point x="1270" y="574" type="line"/>
      <point x="1270" y="714" type="line"/>
      <point x="670" y="714" type="line"/>
      <point x="670" y="1944" type="line"/>
      <point x="530" y="1944" type="line"/>
      <point x="530" y="770" type="line"/>
      <point x="-70" y="770" type="line"/>
    </contour>
  </outline>
</glyph>
<glyph name="boxRightLightAndLeftUpHeavy" format="2">
  <advance width="1200"/>
  <unicode hex="2539"/>
  <outline>
    <contour>
      <point x="-70" y="518" type="line"/>
      <point x="726" y="518" type="line"/>
      <point x="726" y="574" type="line"/>
      <point x="1270" y="574" type="line"/>
      <point x="1270" y="714" type="line"/>
      <point x="726" y="714" type="line"/>
      <point x="726" y="1944" type="line"/>
      <point x="474" y="1944" type="line"/>
      <point x="474" y="770" type="line"/>
      <point x="-70" y="770" type="line"/>
    </contour>
  </outline>
</glyph>
<glyph name="boxLeftHeavyAndRightVerticalLight" format="2">
  <advance width="1200"/>
  <unicode hex="253D"/>
  <outline>
    <contour>
      <point x="530" y="-656" type="line"/>
      <point x="670" y="-656" type="line"/>
      <point x="670" y="574" type="line"/>
      <point x="1270" y="574" type="line"/>
      <point x="1270" y="714" type="line"/>
      <point x="670" y="714" type="line"/>
      <point x="670" y="1944" type="line"/>
      <point x="530" y="1944" type="line"/>
      <point x="530" y="770" type="line"/>
      <point x="-70" y="770" type="line"/>
      <point x="-70" y="518" type="line"/>
      <point x="530" y="518" type="line"/>
    </contour>
  </outline>
</glyph>
<glyph name="boxLeftUpHeavyAndRightDownLight" format="2">
  <advance width="1200"/>
  <unicode hex="2543"/>
  <outline>
    <contour>
      <point x="530" y="-656" type="line"/>
      <point x="670" y="-656" type="line"/>
      <point x="670" y="518" type="line"/>
      <point x="726" y="518" type="line"/>
      <point x="726" y="574" type="line"/>
      <point x="1270" y="574" type="line"/>
      <point x="1270" y="714" type="line"/>
      <point x="726" y="714" type="line"/>
      <point x="726" y="1944" type="line"/>
      <point x="474" y="1944" type="line"/>
      <point x="474" y="770" type="line"/>
      <point x="-70" y="770" type="line"/>
      <point x="-70" y="518" type="line"/>
      <point x="530" y="518" type="line"/>
    </contour>
  </outline>
</glyph>
<glyph name="boxRightUpHeavyAndLeftDownLight" format="2">
  <advance width="1200"/>
  <unicode hex="2544"/>
  <outline>
    <contour>
      <point x="530" y="-656" type="line"/>
      <point x="670" y="-656" type="line"/>
      <point x="670" y="518" type="line"/>
      <point x="1270" y="518" type="line"/>
      <point x="1270" y="770" type="line"/>
      <point x="726" y="770" type="line"/>
      <point x="726" y="1944" type="line"/>
      <point x="474" y="1944" type="line"/>
      <point x="474" y="714" type="line"/>
      <point x="-70" y="714" type="line"/>
      <point x="-70" y="574" type="line"/>
      <point x="474" y="574" type="line"/>
      <point x="474" y="518" type="line"/>
      <point x="530" y="518" type="line"/>
    </contour>
  </outline>
</glyph>
<glyph name="boxLeftLightAndRightVerticalHeavy" format="2">
  <advance width="1200"/>
  <unicode hex="254A"/>
  <outline>
    <contour>
      <point x="474" y="-656" type="line"/>
      <point x="726" y="-656" type="line"/>
      <point x="726" y="518" type="line"/>
      <point x="1270" y="518" type="line"/>
      <point x="1270" y="770" type="line"/>
      <point x="726" y="770" type="line"/>
      <point x="726" y="1944" type="line"/>
      <point x="474" y="1944" type="line"/>
      <point x="474" y="714" type="line"/>
      <point x="-70" y="714" type="line"/>
      <point x="-70" y="574" type="line"/>
      <point x="474" y="574" type="line"/>
    </contour>
  </outline>
</glyph>
<glyph name="boxDoubleHorizontal" format="2">
  <advance width="1200"/>
  <unicode hex="2550"/>
  <outline>
    <contour>
      <point x="-70" y="714" type="line"/>
      <point x="1270" y="714" type="line"/>
      <point x="1270" y="854" type="line"/>
      <point x="-70" y="854" type="line"/>
    </contour>
    <contour>
      <point x="-70" y="434" type="line"/>
      <point x="1270" y="434" type="line"/>
      <point x="1270" y="574" type="line"/>
      <point x="-70" y="574" type="line"/>
    </contour>
  </outline>
</glyph>
<glyph name="boxDoubleVertical" format="2">
  <advance width="1200"/>
  <unicode hex="2551"/>
  <outline>
    <contour>
      <point x="670" y="-656" type="line"/>
      <point x="810" y="-656" type="line"/>
      <point x="810" y="1944" type="line"/>
      <point x="670" y="1944" type="line"/>
    </contour>
    <contour>
      <point x="390" y="-656" type="line"/>
      <point x="530" y="-656" type="line"/>
      <point x="530" y="1944" type="line"/>
      <point x="390" y="1944" type="line"/>
    </contour>
  </outline>
</glyph>
<glyph name="boxUpDoubleAndLeftSingle" format="2">
  <advance width="1200"/>
  <unicode hex="255C"/>
  <outline>
    <contour>
      <point x="-70" y="574" type="line"/>
      <point x="810" y="574" type="line"/>
      <point x="810" y="1944" type="line"/>
      <point x="670" y="1944" type="line"/>
      <point x="670" y="714" type="line"/>
      <point x="530" y="714" type="line"/>
      <point x="530" y="1944" type="line"/>
      <point x="390" y="1944" type="line"/>
      <point x="390" y="714" type="line"/>
      <point x="-70" y="714" type="line"/>
    </contour>
  </outline>
</glyph>
<glyph name="boxVerticalSingleAndRightDouble" format="2">
  <advance width="1200"/>
  <unicode hex="255E"/>
  <outline>
    <contour>
      <point x="530" y="-656" type="line"/>
      <point x="670" y="-656" type="line"/>
      <point x="670" y="434" type="line"/>
      <point x="1270" y="434" type="line"/>
      <point x="1270" y="574" type="line"/>
      <point x="670" y="574" type="line"/>
      <point x="670" y="714" type="line"/>
      <point x="1270" y="714" type="line"/>
      <point x="1270" y="854" type="line"/>
      <point x="670" y="854" type="line"/>
      <point x="670" y="1944" type="line"/>
      <point x="530" y="1944" type="line"/>
    </contour>
  </outline>
</glyph>
<glyph name="boxUpDoubleAndHorizontalSingle" format="2">
  <advance width="1200"/>
  <unicode hex="2568"/>
  <outline>
    <contour>
      <point x="-70" y="574" type="line"/>
      <point x="1270" y="574" type="line"/>
      <point x="1270" y="714" type="line"/>
      <point x="810" y="714" type="line"/>
      <point x="810" y="1944" type="line"/>
      <point x="670" y="1944" type="line"/>
      <point x="670" y="714" type="line"/>
      <point x="530" y="714" type="line"/>
      <point x="530" y="1944" type="line"/>
      <point x="390" y="1944" type="line"/>
      <point x="390" y="714" type="line"/>
      <point x="-70" y="714" type="line"/>
    </contour>
  </outline>
</glyph>
<glyph name="boxLightArcDownAndRight" format="2">
  <advance width="1200"/>
  <unicode hex="256D"/>
  <outline>
    <contour>
      <point x="530" y="-656" type="line"/>
      <point x="670" y="-656" type="line"/>
      <point x="670" y="114" type="line" smooth="yes"/>
      <point x="670" y="400"/>
      <point x="844" y="574"/>
      <point x="1130" y="574" type="curve" smooth="yes"/>
      <point x="1270" y="574" type="line"/>
      <point x="1270" y="714" type="line"/>
      <point x="1130" y="714" type="line" smooth="yes"/>
      <point x="764" y="714"/>
      <point x="530" y="480"/>
      <point x="530" y="114" type="curve" smooth="yes"/>
    </contour>
  </outline>
</glyph>
<glyph name="boxLightArcDownAndLeft" format="2">
  <advance width="1200"/>
  <unicode hex="256E"/>
  <outline>
    <contour>
      <point x="530" y="-656" type="line"/>
      <point x="670" y="-656" type="line"/>
      <point x="670" y="114" type="line" smooth="yes"/>
      <point x="670" y="480"/>
      <point x="436" y="714"/>
      <point x="70" y="714" type="curve" smooth="yes"/>
      <point x="-70" y="714" type="line"/>
      <point x="-70" y="574" type="line"/>
      <point x="70" y="574" type="line" smooth="yes"/>
      <point x="356" y="574"/>
      <point x="530" y="400"/>
      <point x="530" y="114" type="curve" smooth="yes"/>
    </contour>
  </outline>
</glyph>
<glyph name="boxLightArcUpAndRight" format="2">
  <advance width="1200"/>
  <unicode hex="2570"/>
  <outline>
    <contour>
      <point x="1130" y="574" type="curve" smooth="yes"/>
      <point x="1270" y="574" type="line"/>
      <point x="1270" y="714" type="line"/>
      <point x="1130" y="714" type="line" smooth="yes"/>
      <point x="844" y="714"/>
      <point x="670" y="888"/>
      <point x="670" y="1174" type="curve" smooth="yes"/>
      <point x="670" y="1944" type="line"/>
      <point x="530" y="1944" type="line"/>
      <point x="530" y="1174" type="line" smooth="yes"/>
      <point x="530" y="808"/>
      <point x="764" y="574"/>
    </contour>
  </outline>
</glyph>
<glyph name="boxLightDiagonalUpperLeftToLowerRight" format="2">
  <advance width="1200"/>
  <unicode hex="2572"/>
  <outline>
    <contour>
      <point x="1122" y="-606" type="line"/>
      <point x="1200" y="-606" type="line"/>
      <point x="1200" y="-444" type="line"/>
      <point x="78" y="1894" type="line"/>
      <point x="0" y="1894" type="line"/>
      <point x="0" y="1732" type="line"/>
    </contour>
  </outline>
</glyph>
<glyph name="boxLightDiagonalCross" format="2">
  <advance width="1200"/>
  <unicode hex="2573"/>
  <outline>
    <contour>
      <point x="0" y="-606" type="line"/>
      <point x="78" y="-606" type="line"/>
      <point x="600" y="482" type="line"/>
      <point x="1122" y="-606" type="line"/>
      <point x="1200" y="-606" type="line"/>
      <point x="1200" y="-444" type="line"/>
      <point x="678" y="644" type="line"/>
      <point x="1200" y="1732" type="line"/>
      <point x="1200" y="1894" type="line"/>
      <point x="1122" y="1894" type="line"/>
      <point x="600" y="806" type="line"/>
      <point x="78" y="1894" type="line"/>
      <point x="0" y="1894" type="line"/>
      <point x="0" y="1732" type="line"/>
      <point x="522" y="644" type="line"/>
      <point x="0" y="-444" type="line"/>
    </contour>
  </outline>
</glyph>
<glyph name="boxHeavyUp" format="2">
  <advance width="1200"/>
  <unicode hex="2579"/>
  <outline>
    <contour>
      <point x="474" y="574" type="line"/>
      <point x="726" y="574" type="line"/>
      <point x="726" y="1944" type="line"/>
      <point x="474" y="1944" type="line"/>
    </contour>
  </outline>
</glyph>
<glyph name="boxLightLeftAndHeavyRight" format="2">
  <advance width="1200"/>
  <unicode hex="257C"/>
  <outline>
    <contour>
      <point x="530" y="518" type="line"/>
      <point x="1270" y="518" type="line"/>
      <point x="1270" y="770" type="line"/>
      <point x="530" y="770" type="line"/>
      <point x="530" y="714" type="line"/>
      <point x="-70" y="714" type="line"/>
      <point x="-70" y="574" type="line"/>
      <point x="530" y="574" type="line"/>
    </contour>
  </outline>
</glyph>
<glyph name="boxLightUpAndHeavyDown" format="2">
  <advance width="1200"/>
  <unicode hex="257D"/>
  <outline>
    <contour>
      <point x="474" y="-656" type="line"/>
      <point x="726" y="-656" type="line"/>
      <point x="726" y="714" type="line"/>
      <point x="670" y="714" type="line"/>
      <point x="670" y="1944" type="line"/>
      <point x="530" y="1944" type="line"/>
      <point x="530" y="714" type="line"/>
      <point x="474" y="714" type="line"/>
    </contour>
  </outline>
</glyph>
<glyph name="shadelight" format="2">
  <advance width="1200"/>
  <unicode hex="2591"/>
  <outline>
    <contour>
      <point x="1068" y="1717" type="line"/>
      <point x="1150" y="1717" type="line"/>
      <point x="1150" y="1799" type="line"/>
      <point x="1068" y="1799" type="line"/>
    </contour>
    <contour>
      <point x="50" y="-608" type="line"/>
      <point x="132" y="-608" type="line"/>
      <point x="132" y="-526" type="line"/>
      <point x="50" y="-526" type="line"/>
    </contour>
    <contour>
      <point x="50" y="-250" type="line"/>
      <point x="132" y="-250" type="line"/>
      <point x="132" y="-168" type="line"/>
      <point x="50" y="-168" type="line"/>
    </contour>
    <contour>
      <point x="254" y="-429" type="line"/>
      <point x="336" y="-429" type="line"/>
      <point x="336" y="-347" type="line"/>
      <point x="254" y="-347" type="line"/>
    </contour>
    <contour>
      <point x="457" y="-608" type="line"/>
      <point x="539" y="-608" type="line"/>
      <point x="539" y="-526" type="line"/>
      <point x="457" y="-526" type="line"/>
    </contour>
    <contour>
      <point x="50" y="107" type="line"/>
      <point x="132" y="107" type="line"/>
      <point x="132" y="189" type="line"/>
      <point x="50" y="189" type="line"/>
    </contour>
    <contour>
      <point x="254" y="-71" type="line"/>
      <point x="336" y="-71" type="line"/>
      <point x="336" y="11" type="line"/>
      <point x="254" y="11" type="line"/>
    </contour>
    <contour>
      <point x="457" y="-250" type="line"/>
      <point x="539" y="-250" type="line"/>
      <point x="539" y="-168" type="line"/>
      <point x="457" y="-168" type="line"/>
    </contour>
    <contour>
      <point x="661" y="-429" type="line"/>
      <point x="743" y="-429" type="line"/>
      <point x="743" y="-347" type="line"/>
      <point x="661" y="-347" type="line"/>
    </contour>
    <contour>
      <point x="864" y="-608" type="line"/>
      <point x="946" y="-608" type="line"/>
      <point x="946" y="-526" type="line"/>
      <point x="864" y="-526" type="line"/>
    </contour>
    <contour>
      <point x="50" y="465" type="line"/>
      <point x="132" y="465" type="line"/>
      <point x="132" y="547" type="line"/>
      <point x="50" y="547" type="line"/>
    </contour>
    <contour>
      <point x="254" y="286" type="line"/>
      <point x="336" y="286" type="line"/>
      <point x="336" y="368" type="line"/>
      <point x="254" y="368" type="line"/>
    </contour>
    <contour>
      <point x="457" y="107" type="line"/>
      <point x="539" y="107" type="line"/>
      <point x="539" y="189" type="line"/>
      <point x="457" y="189" type="line"/>
    </contour>
    <contour>
      <point x="661" y="-71" type="line"/>
      <point x="743" y="-71" type="line"/>
      <point x="743" y="11" type="line"/>
      <point x="661" y="11" type="line"/>
    </contour>
    <contour>
      <point x="864" y="-250" type="line"/>
      <point x="946" y="-250" type="line"/>
      <point x="946" y="-168" type="line"/>
      <point x="864" y="-168" type="line"/>
    </contour>
    <contour>
      <point x="1068" y="-429" type="line"/>
      <point x="1150" y="-429" type="line"/>
      <point x="1150" y="-347" type="line"/>
      <point x="1068" y="-347" type="line"/>
    </contour>
    <contour>
      <point x="50" y="823" type="line"/>
      <point x="132" y="823" type="line"/>
      <point x="132" y="905" type="line"/>
      <point x="50" y="905" type="line"/>
    </contour>
    <contour>
      <point x="254" y="644" type="line"/>
      <point x="336" y="644" type="line"/>
      <point x="336" y="726" type="line"/>
      <point x="254" y="726" type="line"/>
    </contour>
    <contour>
      <point x="457" y="465" type="line"/>
      <point x="539" y="465" type="line"/>
      <point x="539" y="547" type="line"/>
      <point x="457" y="547" type="line"/>
    </contour>
    <contour>
      <point x="661" y="286" type="line"/>
      <point x="743" y="286" type="line"/>
      <point x="743" y="368" type="line"/>
      <point x="661" y="368" type="line"/>
    </contour>
    <contour>
      <point x="864" y="107" type="line"/>
      <point x="946" y="107" type="line"/>
      <point x="946" y="189" type="line"/>
      <point x="864" y="189" type="line"/>
    </contour>
    <contour>
      <point x="1068" y="-71" type="line"/>
      <point x="1150" y="-71" type="line"/>
      <point x="1150" y="11" type="line"/>
      <point x="1068" y="11" type="line"/>
    </contour>
    <contour>
      <point x="50" y="1181" type="line"/>
      <point x="132" y="1181" type="line"/>
      <point x="132" y="1263" type="line"/>
      <point x="50" y="1263" type="line"/>
    </contour>
    <contour>
      <point x="254" y="1002" type="line"/>
      <point x="336" y="1002" type="line"/>
      <point x="336" y="1084" type="line"/>
      <point x="254" y="1084" type="line"/>
    </contour>
    <contour>
      <point x="457" y="823" type="line"/>
      <point x="539" y="823" type="line"/>
      <point x="539" y="905" type="line"/>
      <point x="457" y="905" type="line"/>
    </contour>
    <contour>
      <point x="661" y="644" type="line"/>
      <point x="743" y="644" type="line"/>
      <point x="743" y="726" type="line"/>
      <point x="661" y="726" type="line"/>
    </contour>
    <contour>
      <point x="864" y="465" type="line"/>
      <point x="946" y="465" type="line"/>
      <point x="946" y="547" type="line"/>
      <point x="864" y="547" type="line"/>
    </contour>
    <contour>
      <point x="1068" y="286" type="line"/>
      <point x="1150" y="286" type="line"/>
      <point x="1150" y="368" type="line"/>
      <point x="1068" y="368" type="line"/>
    </contour>
    <contour>
      <point x="50" y="1538" type="line"/>
      <point x="132" y="1538" type="line"/>
      <point x="132" y="1620" type="line"/>
      <point x="50" y="1620" type="line"/>
    </contour>
    <contour>
      <point x="254" y="1359" type="line"/>
      <point x="336" y="1359" type="line"/>
      <point x="336" y="1441" type="line"/>
      <point x="254" y="1441" type="line"/>
    </contour>
    <contour>
      <point x="457" y="1180" type="line"/>
      <point x="539" y="1180" type="line"/>
      <point x="539" y="1262" type="line"/>
      <point x="457" y="1262" type="line"/>
    </contour>
    <contour>
      <point x="661" y="1001" type="line"/>
      <point x="743" y="1001" type="line"/>
      <point x="743" y="1083" type="line"/>
      <point x="661" y="1083" type="line"/>
    </contour>
    <contour>
      <point x="864" y="823" type="line"/>
      <point x="946" y="823" type="line"/>
      <point x="946" y="905" type="line"/>
      <point x="864" y="905" type="line"/>
    </contour>
    <contour>
      <point x="1068" y="644" type="line"/>
      <point x="1150" y="644" type="line"/>
      <point x="1150" y="726" type="line"/>
      <point x="1068" y="726" type="line"/>
    </contour>
    <contour>
      <point x="254" y="1717" type="line"/>
      <point x="336" y="1717" type="line"/>
      <point x="336" y="1799" type="line"/>
      <point x="254" y="1799" type="line"/>
    </contour>
    <contour>
      <point x="457" y="1538" type="line"/>
      <point x="539" y="1538" type="line"/>
      <point x="539" y="1620" type="line"/>
      <point x="457" y="1620" type="line"/>
    </contour>
    <contour>
      <point x="661" y="1360" type="line"/>
      <point x="743" y="1360" type="line"/>
      <point x="743" y="1442" type="line"/>
      <point x="661" y="1442" type="line"/>
    </contour>
    <contour>
      <point x="864" y="1180" type="line"/>
      <point x="946" y="1180" type="line"/>
      <point x="946" y="1262" type="line"/>
      <point x="864" y="1262" type="line"/>
    </contour>
    <contour>
      <point x="1068" y="1001" type="line"/>
      <point x="1150" y="1001" type="line"/>
      <point x="1150" y="1083" type="line"/>
      <point x="1068" y="1083" type="line"/>
    </contour>
    <contour>
      <point x="661" y="1717" type="line"/>
      <point x="743" y="1717" type="line"/>
      <point x="743" y="1799" type="line"/>
      <point x="661" y="1799" type="line"/>
    </contour>
    <contour>
      <point x="864" y="1538" type="line"/>
      <point x="946" y="1538" type="line"/>
      <point x="946" y="1620" type="line"/>
      <point x="864" y="1620" type="line"/>
    </contour>
    <contour>
      <point x="1068" y="1360" type="line"/>
      <point x="1150" y="1360" type="line"/>
      <point x="1150" y="1442" type="line"/>
      <point x="1068" y="1442" type="line"/>
    </contour>
  </outline>
</glyph>
<glyph name="shadedark" format="2">
  <advance width="1200"/>
  <unicode hex="2593"/>
  <outline>
    <contour>
      <point x="-6" y="-608" type="line"/>
      <point x="1206" y="-608" type="line"/>
      <point x="1206" y="1896" type="line"/>
      <point x="-6" y="1896" type="line"/>
    </contour>
    <contour>
      <point x="40" y="-608" type="line"/>
      <point x="40" y="-490" type="line"/>
      <point x="158" y="-490" type="line"/>
      <point x="158" y="-608" type="line"/>
    </contour>
    <contour>
      <point x="40" y="-250" type="line"/>
      <point x="40" y="-132" type="line"/>
      <point x="158" y="-132" type="line"/>
      <point x="158" y="-250" type="line"/>
    </contour>
    <contour>
      <point x="246" y="-429" type="line"/>
      <point x="246" y="-311" type="line"/>
      <point x="364" y="-311" type="line"/>
      <point x="364" y="-429" type="line"/>
    </contour>
    <contour>
      <point x="438" y="-608" type="line"/>
      <point x="438" y="-490" type="line"/>
      <point x="556" y="-490" type="line"/>
      <point x="556" y="-608" type="line"/>
    </contour>
    <contour>
      <point x="40" y="107" type="line"/>
      <point x="40" y="225" type="line"/>
      <point x="158" y="225" type="line"/>
      <point x="158" y="107" type="line"/>
    </contour>
    <contour>
      <point x="246" y="-71" type="line"/>
      <point x="246" y="47" type="line"/>
      <point x="364" y="47" type="line"/>
      <point x="364" y="-71" type="line"/>
    </contour>
    <contour>
      <point x="438" y="-250" type="line"/>
      <point x="438" y="-132" type="line"/>
      <point x="556" y="-132" type="line"/>
      <point x="556" y="-250" type="line"/>
    </contour>
    <contour>
      <point x="644" y="-429" type="line"/>
      <point x="644" y="-311" type="line"/>
      <point x="762" y="-311" type="line"/>
      <point x="762" y="-429" type="line"/>
    </contour>
    <contour>
      <point x="836" y="-608" type="line"/>
      <point x="836" y="-490" type="line"/>
      <point x="954" y="-490" type="line"/>
      <point x="954" y="-608" type="line"/>
    </contour>
    <contour>
      <point x="40" y="465" type="line"/>
      <point x="40" y="583" type="line"/>
      <point x="158" y="583" type="line"/>
      <point x="158" y="465" type="line"/>
    </contour>
    <contour>
      <point x="246" y="286" type="line"/>
      <point x="246" y="404" type="line"/>
      <point x="364" y="404" type="line"/>
      <point x="364" y="286" type="line"/>
    </contour>
    <contour>
      <point x="438" y="107" type="line"/>
      <point x="438" y="225" type="line"/>
      <point x="556" y="225" type="line"/>
      <point x="556" y="107" type="line"/>
    </contour>
    <contour>
      <point x="644" y="-71" type="line"/>
      <point x="644" y="47" type="line"/>
      <point x="762" y="47" type="line"/>
      <point x="762" y="-71" type="line"/>
    </contour>
    <contour>
      <point x="836" y="-250" type="line"/>
      <point x="836" y="-132" type="line"/>
      <point x="954" y="-132" type="line"/>
      <point x="954" y="-250" type="line"/>
    </contour>
    <contour>
      <point x="1042" y="-429" type="line"/>
      <point x="1042" y="-311" type="line"/>
      <point x="1160" y="-311" type="line"/>
      <point x="1160" y="-429" type="line"/>
    </contour>
    <contour>
      <point x="40" y="823" type="line"/>
      <point x="40" y="941" type="line"/>
      <point x="158" y="941" type="line"/>
      <point x="158" y="823" type="line"/>
    </contour>
    <contour>
      <point x="246" y="644" type="line"/>
      <point x="246" y="762" type="line"/>
      <point x="364" y="762" type="line"/>
      <point x="364" y="644" type="line"/>
    </contour>
    <contour>
      <point x="438" y="465" type="line"/>
      <point x="438" y="583" type="line"/>
      <point x="556" y="583" type="line"/>
      <point x="556" y="465" type="line"/>
    </contour>
    <contour>
      <point x="644" y="286" type="line"/>
      <point x="644" y="404" type="line"/>
      <point x="762" y="404" type="line"/>
      <point x="762" y="286" type="line"/>
    </contour>
    <contour>
      <point x="836" y="107" type="line"/>
      <point x="836" y="225" type="line"/>
      <point x="954" y="225" type="line"/>
      <point x="954" y="107" type="line"/>
    </contour>
    <contour>
      <point x="1042" y="-71" type="line"/>
      <point x="1042" y="47" type="line"/>
      <point x="1160" y="47" type="line"/>
      <point x="1160" y="-71" type="line"/>
    </contour>
    <contour>
      <point x="40" y="1181" type="line"/>
      <point x="40" y="1299" type="line"/>
      <point x="158" y="1299" type="line"/>
      <point x="158" y="1181" type="line"/>
    </contour>
    <contour>
      <point x="246" y="1002" type="line"/>
      <point x="246" y="1120" type="line"/>
      <point x="364" y="1120" type="line"/>
      <point x="364" y="1002" type="line"/>
    </contour>
    <contour>
      <point x="438" y="823" type="line"/>
      <point x="438" y="941" type="line"/>
      <point x="556" y="941" type="line"/>
      <point x="556" y="823" type="line"/>
    </contour>
    <contour>
      <point x="644" y="644" type="line"/>
      <point x="644" y="762" type="line"/>
      <point x="762" y="762" type="line"/>
      <point x="762" y="644" type="line"/>
    </contour>
    <contour>
      <point x="836" y="465" type="line"/>
      <point x="836" y="583" type="line"/>
      <point x="954" y="583" type="line"/>
      <point x="954" y="465" type="line"/>
    </contour>
    <contour>
      <point x="1042" y="286" type="line"/>
      <point x="1042" y="404" type="line"/>
      <point x="1160" y="404" type="line"/>
      <point x="1160" y="286" type="line"/>
    </contour>
    <contour>
      <point x="40" y="1538" type="line"/>
      <point x="40" y="1656" type="line"/>
      <point x="158" y="1656" type="line"/>
      <point x="158" y="1538" type="line"/>
    </contour>
    <contour>
      <point x="246" y="1359" type="line"/>
      <point x="246" y="1477" type="line"/>
      <point x="364" y="1477" type="line"/>
      <point x="364" y="1359" type="line"/>
    </contour>
    <contour>
      <point x="438" y="1180" type="line"/>
      <point x="438" y="1298" type="line"/>
      <point x="556" y="1298" type="line"/>
      <point x="556" y="1180" type="line"/>
    </contour>
    <contour>
      <point x="644" y="1002" type="line"/>
      <point x="644" y="1120" type="line"/>
      <point x="762" y="1120" type="line"/>
      <point x="762" y="1002" type="line"/>
    </contour>
    <contour>
      <point x="836" y="823" type="line"/>
      <point x="836" y="941" type="line"/>
      <point x="954" y="941" type="line"/>
      <point x="954" y="823" type="line"/>
    </contour>
    <contour>
      <point x="1042" y="644" type="line"/>
      <point x="1042" y="762" type="line"/>
      <point x="1160" y="762" type="line"/>
      <point x="1160" y="644" type="line"/>
    </contour>
    <contour>
      <point x="246" y="1717" type="line"/>
      <point x="246" y="1835" type="line"/>
      <point x="364" y="1835" type="line"/>
      <point x="364" y="1717" type="line"/>
    </contour>
    <contour>
      <point x="438" y="1538" type="line"/>
      <point x="438" y="1656" type="line"/>
      <point x="556" y="1656" type="line"/>
      <point x="556" y="1538" type="line"/>
    </contour>
    <contour>
      <point x="644" y="1359" type="line"/>
      <point x="644" y="1477" type="line"/>
      <point x="762" y="1477" type="line"/>
      <point x="762" y="1359" type="line"/>
    </contour>
    <contour>
      <point x="836" y="1181" type="line"/>
      <point x="836" y="1299" type="line"/>
      <point x="954" y="1299" type="line"/>
      <point x="954" y="1181" type="line"/>
    </contour>
    <contour>
      <point x="1042" y="1002" type="line"/>
      <point x="1042" y="1120" type="line"/>
      <point x="1160" y="1120" type="line"/>
      <point x="1160" y="1002" type="line"/>
    </contour>
    <contour>
      <point x="644" y="1717" type="line"/>
      <point x="644" y="1835" type="line"/>
      <point x="762" y="1835" type="line"/>
      <point x="762" y="1717" type="line"/>
    </contour>
    <contour>
      <point x="836" y="1538" type="line"/>
      <point x="836" y="1656" type="line"/>
      <point x="954" y="1656" type="line"/>
      <point x="954" y="1538" type="line"/>
    </contour>
    <contour>
      <point x="1042" y="1359" type="line"/>
      <point x="1042" y="1477" type="line"/>
      <point x="1160" y="1477" type="line"/>
      <point x="1160" y="1359" type="line"/>
    </contour>
    <contour>
      <point x="1042" y="1717" type="line"/>
      <point x="1042" y="1835" type="line"/>
      <point x="1160" y="1835" type="line"/>
      <point x="1160" y="1717" type="line"/>
    </contour>
  </outline>
</glyph>
<glyph name="whiteSquare" format="2">
  <advance width="1200"/>
  <unicode hex="25A1"/>
  <outline>
    <contour>
      <point x="102" y="218" type="line"/>
      <point x="1098" y="218" type="line"/>
      <point x="1098" y="1214" type="line"/>
      <point x="102" y="1214" type="line"/>
    </contour>
    <contour>
      <point x="208" y="322" type="line"/>
      <point x="208" y="1110" type="line"/>
      <point x="992" y="1110" type="line"/>
      <point x="992" y="322" type="line"/>
    </contour>
  </outline>
</glyph>
<glyph name="whiteSmallSquare" format="2">
  <advance width="1200"/>
  <unicode hex="25AB"/>
  <outline>
    <contour>
      <point x="301" y="284" type="line"/>
      <point x="899" y="284" type="line"/>
      <point x="899" y="882" type="line"/>
      <point x="301" y="882" type="line"/>
    </contour>
    <contour>
      <point x="393" y="374" type="line"/>
      <point x="393" y="792" type="line"/>
      <point x="807" y="792" type="line"/>
      <point x="807" y="374" type="line"/>
    </contour>
  </outline>
</glyph>
<glyph name="filledRect" format="2">
  <advance width="1200"/>
  <unicode hex="25AC"/>
  <outline>
    <contour>
      <point x="60" y="420" type="line"/>
      <point x="1140" y="420" type="line"/>
      <point x="1140" y="656" type="line"/>
      <point x="60" y="656" type="line"/>
    </contour>
  </outline>
</glyph>
<glyph name="blackDiamond" format="2">
  <advance width="1200"/>
  <unicode hex="25C6"/>
  <outline>
    <contour>
      <point x="600" y="200" type="line"/>
      <point x="1116" y="716" type="line"/>
      <point x="600" y="1232" type="line"/>
      <point x="84" y="716" type="line"/>
    </contour>
  </outline>
</glyph>
<glyph name="fisheye" format="2">
  <advance width="1200"/>
  <unicode hex="25C9"/>
  <outline>
    <contour>
      <point x="600" y="166" type="curve" smooth="yes"/>
      <point x="916" y="166"/>
      <point x="1150" y="401"/>
      <point x="1150" y="716" type="curve" smooth="yes"/>
      <point x="1150" y="1032"/>
      <point x="916" y="1266"/>
      <point x="600" y="1266" type="curve" smooth="yes"/>
      <point x="285" y="1266"/>
      <point x="50" y="1031"/>
      <point x="50" y="716" type="curve" smooth="yes"/>
      <point x="50" y="401"/>
      <point x="285" y="166"/>
    </contour>
    <contour>
      <point x="600" y="258" type="curve" smooth="yes"/>
      <point x="340" y="258"/>
      <point x="146" y="454"/>
      <point x="146" y="716" type="curve" smooth="yes"/>
      <point x="146" y="978"/>
      <point x="340" y="1174"/>
      <point x="600" y="1174" type="curve" smooth="yes"/>
      <point x="860" y="1174"/>
      <point x="1054" y="978"/>
      <point x="1054" y="716" type="curve" smooth="yes"/>
      <point x="1054" y="454"/>
      <point x="860" y="258"/>
    </contour>
    <contour>
      <point x="600" y="388" type="curve" smooth="yes"/>
      <point x="785" y="388"/>
      <point x="920" y="527"/>
      <point x="920" y="716" type="curve" smooth="yes"/>
      <point x="920" y="905"/>
      <point x="785" y="1044"/>
      <point x="600" y="1044" type="curve" smooth="yes"/>
      <point x="415" y="1044"/>
      <point x="280" y="905"/>
      <point x="280" y="716" type="curve" smooth="yes"/>
      <point x="280" y="527"/>
      <point x="415" y="388"/>
    </contour>
  </outline>
</glyph>
<glyph name="lozenge" format="2">
  <advance width="1200"/>
  <unicode hex="25CA"/>
  <outline>
    <contour>
      <point x="532" y="-30" type="line"/>
      <point x="668" y="-30" type="line"/>
      <point x="1080" y="716" type="line"/>
      <point x="668" y="1462" type="line"/>
      <point x="532" y="1462" type="line"/>
      <point x="120" y="716" type="line"/>
    </contour>
    <contour>
      <point x="600" y="126" type="line"/>
      <point x="245" y="770" type="line"/>
      <point x="245" y="662" type="line"/>
      <point x="600" y="1306" type="line"/>
      <point x="955" y="662" type="line"/>
      <point x="955" y="770" type="line"/>
    </contour>
  </outline>
</glyph>
<glyph name="whiteCircle" format="2">
  <advance width="1200"/>
  <unicode hex="25CB"/>
  <outline>
    <contour>
      <point x="600" y="166" type="curve" smooth="yes"/>
      <point x="913" y="166"/>
      <point x="1150" y="402"/>
      <point x="1150" y="716" type="curve" smooth="yes"/>
      <point x="1150" y="1030"/>
      <point x="913" y="1266"/>
      <point x="600" y="1266" type="curve" smooth="yes"/>
      <point x="287" y="1266"/>
      <point x="50" y="1029"/>
      <point x="50" y="716" type="curve" smooth="yes"/>
      <point x="50" y="403"/>
      <point x="287" y="166"/>
    </contour>
    <contour>
      <point x="600" y="270" type="curve" smooth="yes"/>
      <point x="347" y="270"/>
      <point x="158" y="461"/>
      <point x="158" y="716" type="curve" smooth="yes"/>
      <point x="158" y="971"/>
      <point x="347" y="1162"/>
      <point x="600" y="1162" type="curve" smooth="yes"/>
      <point x="853" y="1162"/>
      <point x="1042" y="971"/>
      <point x="1042" y="716" type="curve" smooth="yes"/>
      <point x="1042" y="461"/>
      <point x="853" y="270"/>
    </contour>
  </outline>
</glyph>
<glyph name="blackCircle" format="2">
  <advance width="1200"/>
  <unicode hex="25CF"/>
  <outline>
    <contour>
      <point x="600" y="240" type="curve" smooth="yes"/>
      <point x="870" y="240"/>
      <point x="1072" y="444"/>
      <point x="1072" y="716" type="curve" smooth="yes"/>
      <point x="1072" y="988"/>
      <point x="870" y="1192"/>
      <point x="600" y="1192" type="curve" smooth="yes"/>
      <point x="330" y="1192"/>
      <point x="128" y="988"/>
      <point x="128" y="716" type="curve" smooth="yes"/>
      <point x="128" y="444"/>
      <point x="330" y="240"/>
    </contour>
  </outline>
</glyph>
<glyph name="Ohorn.alt" format="2">
  <advance width="1200"/>
  <anchor x="607" y="1432" name="top"/>
  <outline>
    <contour>
      <point x="600" y="-30" type="curve" smooth="yes"/>
      <point x="919" y="-30"/>
      <point x="1117" y="249"/>
      <point x="1117" y="698" type="curve" smooth="yes"/>
      <point x="1117" y="734" type="line" smooth="yes"/>
      <point x="1117" y="1078"/>
      <point x="991" y="1320"/>
      <point x="763" y="1416" type="curve"/>
      <point x="754" y="1360" type="line"/>
      <point x="876" y="1360" type="line" smooth="yes"/>
      <point x="1070" y="1360"/>
      <point x="1179" y="1438"/>
      <point x="1179" y="1575" type="curve" smooth="yes"/>
      <point x="1179" y="1628"/>
      <point x="1163" y="1678"/>
      <point x="1135" y="1726" type="curve"/>
      <point x="989" y="1655" type="line"/>
      <point x="1008" y="1622"/>
      <point x="1019" y="1589"/>
      <point x="1019" y="1556" type="curve" smooth="yes"/>
      <point x="1019" y="1483"/>
      <point x="964" y="1446"/>
      <point x="850" y="1446" type="curve" smooth="yes"/>
      <point x="769" y="1446"/>
      <point x="695" y="1462"/>
      <point x="607" y="1462" type="curve" smooth="yes"/>
      <point x="280" y="1462"/>
      <point x="83" y="1183"/>
      <point x="83" y="734" type="curve" smooth="yes"/>
      <point x="83" y="698" type="line" smooth="yes"/>
      <point x="83" y="249"/>
      <point x="281" y="-30"/>
    </contour>
    <contour>
      <point x="600" y="110" type="curve" smooth="yes"/>
      <point x="364" y="110"/>
      <point x="231" y="320"/>
      <point x="231" y="693" type="curve" smooth="yes"/>
      <point x="231" y="739" type="line" smooth="yes"/>
      <point x="231" y="1112"/>
      <point x="370" y="1328"/>
      <point x="607" y="1328" type="curve" smooth="yes"/>
      <point x="843" y="1328"/>
      <point x="969" y="1124"/>
      <point x="969" y="739" type="curve" smooth="yes"/>
      <point x="969" y="693" type="line" smooth="yes"/>
      <point x="969" y="320"/>
      <point x="835" y="110"/>
    </contour>
  </outline>
</glyph>
<glyph name="Uhorn.alt" format="2">
  <advance width="1200"/>
  <outline>
    <contour>
      <point x="530" y="-30" type="curve" smooth="yes"/>
      <point x="778" y="-30"/>
      <point x="944" y="147"/>
      <point x="944" y="401" type="curve" smooth="yes"/>
      <point x="944" y="1394" type="line"/>
      <point x="839" y="1336" type="line"/>
      <point x="914" y="1336" type="line" smooth="yes"/>
      <point x="1061" y="1336"/>
      <point x="1174" y="1422"/>
      <point x="1174" y="1557" type="curve" smooth="yes"/>
      <point x="1174" y="1609"/>
      <point x="1164" y="1664"/>
      <point x="1143" y="1719" type="curve"/>
      <point x="977" y="1667" type="line"/>
      <point x="996" y="1617"/>
      <point x="1004" y="1579"/>
      <point x="1004" y="1537" type="curve" smooth="yes"/>
      <point x="1004" y="1465"/>
      <point x="957" y="1432"/>
      <point x="867" y="1432" type="curve" smooth="yes"/>
      <point x="798" y="1432" type="line"/>
      <point x="798" y="411" type="line" smooth="yes"/>
      <point x="798" y="226"/>
      <point x="698" y="110"/>
      <point x="530" y="110" type="curve" smooth="yes"/>
      <point x="362" y="110"/>
      <point x="262" y="226"/>
      <point x="262" y="411" type="curve" smooth="yes"/>
      <point x="262" y="1432" type="line"/>
      <point x="116" y="1432" type="line"/>
      <point x="116" y="401" type="line" smooth="yes"/>
      <point x="116" y="147"/>
      <point x="282" y="-30"/>
    </contour>
  </outline>
</glyph>
<glyph name="brevecomb_tildecomb" format="2">
  <guideline x="350" y="1484" angle="90"/>
  <guideline x="-350" y="1484" angle="90"/>
  <guideline y="1868" name=" [locked]"/>
  <anchor x="0" y="1045" name="_top"/>
  <outline>
    <contour>
      <point x="0" y="1149" type="curve" smooth="yes"/>
      <point x="203" y="1149"/>
      <point x="336" y="1283"/>
      <point x="336" y="1473" type="curve" smooth="yes"/>
      <point x="336" y="1487" type="line"/>
      <point x="202" y="1487" type="line"/>
      <point x="202" y="1471" type="line" smooth="yes"/>
      <point x="202" y="1352"/>
      <point x="126" y="1273"/>
      <point x="0" y="1273" type="curve" smooth="yes"/>
      <point x="-126" y="1273"/>
      <point x="-202" y="1352"/>
      <point x="-202" y="1471" type="curve" smooth="yes"/>
      <point x="-202" y="1487" type="line"/>
      <point x="-336" y="1487" type="line"/>
      <point x="-336" y="1473" type="line" smooth="yes"/>
      <point x="-336" y="1283"/>
      <point x="-203" y="1149"/>
    </contour>
    <contour>
      <point x="166" y="1588" type="curve" smooth="yes"/>
      <point x="282" y="1588"/>
      <point x="355" y="1668"/>
      <point x="355" y="1789" type="curve" smooth="yes"/>
      <point x="355" y="1892" type="line"/>
      <point x="225" y="1892" type="line"/>
      <point x="225" y="1793" type="line" smooth="yes"/>
      <point x="225" y="1740"/>
      <point x="202" y="1712"/>
      <point x="161" y="1712" type="curve" smooth="yes"/>
      <point x="120" y="1712"/>
      <point x="91" y="1731"/>
      <point x="24" y="1800" type="curve" smooth="yes"/>
      <point x="-38" y="1863"/>
      <point x="-86" y="1896"/>
      <point x="-164" y="1896" type="curve" smooth="yes"/>
      <point x="-279" y="1896"/>
      <point x="-355" y="1819"/>
      <point x="-355" y="1695" type="curve" smooth="yes"/>
      <point x="-355" y="1592" type="line"/>
      <point x="-225" y="1592" type="line"/>
      <point x="-225" y="1691" type="line" smooth="yes"/>
      <point x="-225" y="1744"/>
      <point x="-196" y="1772"/>
      <point x="-154" y="1772" type="curve" smooth="yes"/>
      <point x="-116" y="1772"/>
      <point x="-93" y="1754"/>
      <point x="-24" y="1683" type="curve" smooth="yes"/>
      <point x="38" y="1620"/>
      <point x="89" y="1588"/>
    </contour>
  </outline>
</glyph>
<glyph name="circumflexcomb_tildecomb" format="2">
  <anchor x="0" y="1045" name="_top"/>
  <outline>
    <contour>
      <point x="-356" y="1163" type="line"/>
      <point x="-190" y="1163" type="line"/>
      <point x="18" y="1424" type="line"/>
      <point x="-18" y="1424" type="line"/>
      <point x="190" y="1163" type="line"/>
      <point x="356" y="1163" type="line"/>
      <point x="356" y="1173" type="line"/>
      <point x="80" y="1501" type="line"/>
      <point x="-80" y="1501" type="line"/>
      <point x="-356" y="1173" type="line"/>
    </contour>
    <contour>
      <point x="148" y="1610" type="curve" smooth="yes"/>
      <point x="263" y="1610"/>
      <point x="335" y="1701"/>
      <point x="335" y="1851" type="curve" smooth="yes"/>
      <point x="335" y="1896" type="line"/>
      <point x="205" y="1896" type="line"/>
      <point x="205" y="1845" type="line" smooth="yes"/>
      <point x="205" y="1773"/>
      <point x="183" y="1734"/>
      <point x="142" y="1734" type="curve" smooth="yes"/>
      <point x="107" y="1734"/>
      <point x="81" y="1751"/>
      <point x="24" y="1812" type="curve" smooth="yes"/>
      <point x="-32" y="1872"/>
      <point x="-74" y="1898"/>
      <point x="-144" y="1898" type="curve" smooth="yes"/>
      <point x="-260" y="1898"/>
      <point x="-335" y="1805"/>
      <point x="-335" y="1657" type="curve" smooth="yes"/>
      <point x="-335" y="1612" type="line"/>
      <point x="-205" y="1612" type="line"/>
      <point x="-205" y="1663" type="line" smooth="yes"/>
      <point x="-205" y="1735"/>
      <point x="-181" y="1774"/>
      <point x="-138" y="1774" type="curve" smooth="yes"/>
      <point x="-105" y="1774"/>
      <point x="-84" y="1759"/>
      <point x="-24" y="1695" type="curve" smooth="yes"/>
      <point x="32" y="1635"/>
      <point x="78" y="1610"/>
    </contour>
  </outline>
</glyph>
<glyph name="ohorn.alt" format="2">
  <advance width="1200"/>
  <outline>
    <contour>
      <point x="600" y="-30" type="curve" smooth="yes"/>
      <point x="885" y="-30"/>
      <point x="1074" y="185"/>
      <point x="1074" y="508" type="curve" smooth="yes"/>
      <point x="1074" y="537" type="line" smooth="yes"/>
      <point x="1074" y="791"/>
      <point x="957" y="972"/>
      <point x="755" y="1031" type="curve"/>
      <point x="744" y="980" type="line"/>
      <point x="862" y="980" type="line" smooth="yes"/>
      <point x="1034" y="980"/>
      <point x="1136" y="1057"/>
      <point x="1136" y="1187" type="curve" smooth="yes"/>
      <point x="1136" y="1238"/>
      <point x="1126" y="1285"/>
      <point x="1104" y="1336" type="curve"/>
      <point x="948" y="1285" type="line"/>
      <point x="967" y="1242"/>
      <point x="976" y="1204"/>
      <point x="976" y="1168" type="curve" smooth="yes"/>
      <point x="976" y="1096"/>
      <point x="933" y="1062"/>
      <point x="840" y="1062" type="curve" smooth="yes"/>
      <point x="769" y="1062"/>
      <point x="694" y="1075"/>
      <point x="600" y="1075" type="curve" smooth="yes"/>
      <point x="315" y="1075"/>
      <point x="126" y="860"/>
      <point x="126" y="537" type="curve" smooth="yes"/>
      <point x="126" y="508" type="line" smooth="yes"/>
      <point x="126" y="185"/>
      <point x="315" y="-30"/>
    </contour>
    <contour>
      <point x="600" y="106" type="curve" smooth="yes"/>
      <point x="397" y="106"/>
      <point x="274" y="258"/>
      <point x="274" y="511" type="curve" smooth="yes"/>
      <point x="274" y="534" type="line" smooth="yes"/>
      <point x="274" y="791"/>
      <point x="397" y="945"/>
      <point x="600" y="945" type="curve" smooth="yes"/>
      <point x="803" y="945"/>
      <point x="926" y="791"/>
      <point x="926" y="534" type="curve" smooth="yes"/>
      <point x="926" y="511" type="line" smooth="yes"/>
      <point x="926" y="258"/>
      <point x="803" y="106"/>
    </contour>
  </outline>
</glyph>
